<svg width="36.401611" height="36.401611" viewBox="0 0 36.4016 36.4016" fill="none" xmlns="http://www.w3.org/2000/svg" xmlns:xlink="http://www.w3.org/1999/xlink">
	<desc>
			Created with Pixso.
	</desc>
	<defs>
		<linearGradient x1="2.621143" y1="18.200806" x2="39.317265" y2="18.200806" id="paint_linear_13_1287_0" gradientUnits="userSpaceOnUse">
			<stop stop-color="#FFD20B"/>
			<stop offset="1.000000" stop-color="#F69300"/>
		</linearGradient>
	</defs>
	<circle id="Ellipse 13" cx="18.200806" cy="18.200806" r="18.200806" fill="url(#paint_linear_13_1287_0)" fill-opacity="1.000000"/>
	<path id="Vector" d="M19.39 17.43L19.39 22.81C19.39 22.92 19.35 23.01 19.28 23.09C19.21 23.16 19.11 23.2 19.01 23.2C18.91 23.2 18.81 23.16 18.74 23.09C18.67 23.01 18.63 22.92 18.63 22.81L18.63 17.43C18.63 17.32 18.67 17.23 18.74 17.15C18.81 17.08 18.91 17.04 19.01 17.04C19.11 17.04 19.21 17.08 19.28 17.15C19.35 17.23 19.39 17.32 19.39 17.43ZM24.13 17.04C24.08 17.04 24.03 17.04 23.98 17.06C23.93 17.07 23.89 17.09 23.85 17.13C23.81 17.16 23.77 17.2 23.75 17.24C23.73 17.29 23.71 17.34 23.71 17.39L23.17 22.77C23.16 22.82 23.17 22.88 23.18 22.92C23.2 22.97 23.22 23.02 23.25 23.06C23.28 23.1 23.32 23.13 23.37 23.15C23.41 23.18 23.46 23.19 23.51 23.2L23.55 23.2C23.65 23.2 23.74 23.16 23.81 23.1C23.88 23.04 23.93 22.95 23.94 22.85L24.48 17.47C24.48 17.41 24.48 17.36 24.46 17.31C24.45 17.27 24.42 17.22 24.39 17.18C24.36 17.14 24.32 17.11 24.27 17.09C24.23 17.06 24.18 17.05 24.13 17.04ZM13.89 17.04C13.84 17.05 13.79 17.06 13.75 17.09C13.7 17.11 13.66 17.14 13.63 17.18C13.6 17.22 13.58 17.27 13.56 17.31C13.55 17.36 13.54 17.41 13.55 17.46L14.09 22.85C14.1 22.95 14.14 23.03 14.21 23.1C14.28 23.16 14.38 23.2 14.47 23.2L14.51 23.2C14.56 23.19 14.61 23.18 14.65 23.15C14.7 23.13 14.74 23.1 14.77 23.06C14.8 23.02 14.83 22.97 14.84 22.92C14.86 22.88 14.86 22.83 14.86 22.78L14.32 17.39C14.31 17.34 14.3 17.29 14.27 17.24C14.25 17.2 14.22 17.16 14.18 17.13C14.14 17.09 14.09 17.07 14.04 17.06C13.99 17.04 13.94 17.04 13.89 17.04ZM29.4 14.4L27.95 25.28C27.91 25.55 27.77 25.81 27.56 25.99C27.35 26.18 27.08 26.28 26.8 26.28L11.22 26.28C10.94 26.28 10.67 26.18 10.46 25.99C10.25 25.81 10.11 25.55 10.07 25.28L8.62 14.4C8.61 14.34 8.62 14.29 8.64 14.24C8.65 14.18 8.68 14.14 8.72 14.1C8.75 14.05 8.8 14.02 8.85 14C8.9 13.98 8.95 13.96 9.01 13.96L13.45 13.96L18.72 7.94C18.76 7.9 18.8 7.86 18.85 7.84C18.9 7.82 18.96 7.81 19.01 7.81C19.06 7.81 19.12 7.82 19.17 7.84C19.22 7.86 19.26 7.9 19.3 7.94L24.57 13.96L29.02 13.96C29.07 13.96 29.12 13.98 29.17 14C29.22 14.02 29.27 14.05 29.3 14.1C29.34 14.14 29.37 14.18 29.38 14.24C29.4 14.29 29.41 14.34 29.4 14.4ZM14.47 13.96L23.55 13.96L19.01 8.78L14.47 13.96ZM28.58 14.73L9.44 14.73L10.83 25.17C10.85 25.27 10.89 25.35 10.96 25.41C11.03 25.48 11.12 25.51 11.22 25.51L26.8 25.51C26.9 25.51 26.99 25.48 27.06 25.41C27.13 25.35 27.17 25.27 27.19 25.17L28.58 14.73Z" fill="#F5F5F5" fill-opacity="1.000000" fill-rule="nonzero"/>
</svg>
