<svg width="45.033386" height="45.033447" viewBox="0 0 45.0334 45.0334" fill="none" xmlns="http://www.w3.org/2000/svg" xmlns:xlink="http://www.w3.org/1999/xlink">
	<desc>
			Created with Pixso.
	</desc>
	<defs>
		<linearGradient x1="3.242684" y1="22.516693" x2="48.640423" y2="22.516693" id="paint_linear_401_1840_0" gradientUnits="userSpaceOnUse">
			<stop stop-color="#FFD20B"/>
			<stop offset="1.000000" stop-color="#F69300"/>
		</linearGradient>
	</defs>
	<circle id="Ellipse 13" cx="22.516724" cy="22.516724" r="22.516693" fill="url(#paint_linear_401_1840_0)" fill-opacity="1.000000"/>
	<path id="Vector" d="M23.99 21.56L23.99 28.23C23.99 28.35 23.94 28.47 23.86 28.56C23.77 28.65 23.64 28.7 23.52 28.7C23.39 28.7 23.27 28.65 23.18 28.56C23.09 28.47 23.04 28.35 23.04 28.23L23.04 21.56C23.04 21.43 23.09 21.31 23.18 21.22C23.27 21.13 23.39 21.08 23.52 21.08C23.64 21.08 23.77 21.13 23.86 21.22C23.94 21.31 23.99 21.43 23.99 21.56ZM29.85 21.08C29.79 21.08 29.72 21.08 29.67 21.1C29.61 21.12 29.55 21.15 29.5 21.19C29.45 21.23 29.41 21.28 29.38 21.33C29.35 21.39 29.34 21.45 29.33 21.51L28.66 28.18C28.66 28.24 28.66 28.3 28.68 28.36C28.7 28.42 28.73 28.48 28.77 28.53C28.81 28.58 28.85 28.62 28.91 28.65C28.96 28.68 29.03 28.69 29.09 28.7L29.14 28.7C29.26 28.7 29.37 28.66 29.46 28.58C29.55 28.5 29.6 28.39 29.61 28.27L30.28 21.61C30.29 21.55 30.28 21.48 30.26 21.42C30.24 21.36 30.21 21.31 30.17 21.26C30.13 21.21 30.09 21.17 30.03 21.14C29.97 21.11 29.91 21.09 29.85 21.08ZM17.19 21.08C17.12 21.09 17.06 21.11 17.01 21.14C16.95 21.17 16.91 21.21 16.87 21.26C16.83 21.31 16.8 21.36 16.78 21.42C16.76 21.48 16.75 21.54 16.76 21.61L17.43 28.27C17.44 28.39 17.49 28.5 17.58 28.58C17.67 28.66 17.79 28.7 17.9 28.7L17.95 28.7C18.01 28.69 18.07 28.67 18.13 28.64C18.18 28.61 18.23 28.57 18.27 28.53C18.31 28.48 18.34 28.42 18.36 28.36C18.38 28.3 18.38 28.24 18.38 28.18L17.71 21.51C17.71 21.45 17.69 21.39 17.66 21.33C17.63 21.28 17.59 21.23 17.54 21.19C17.49 21.15 17.43 21.12 17.37 21.1C17.31 21.08 17.25 21.08 17.19 21.08ZM36.37 17.81L34.57 31.27C34.53 31.61 34.36 31.93 34.1 32.16C33.84 32.38 33.5 32.51 33.16 32.51L13.88 32.51C13.53 32.51 13.2 32.38 12.94 32.16C12.68 31.93 12.51 31.61 12.46 31.27L10.67 17.81C10.66 17.75 10.66 17.68 10.68 17.61C10.7 17.55 10.74 17.49 10.78 17.44C10.83 17.39 10.88 17.35 10.95 17.32C11.01 17.29 11.07 17.28 11.14 17.28L16.64 17.28L23.16 9.82C23.21 9.77 23.26 9.73 23.32 9.7C23.38 9.68 23.45 9.66 23.52 9.66C23.59 9.66 23.65 9.68 23.71 9.7C23.78 9.73 23.83 9.77 23.88 9.82L30.4 17.28L35.9 17.28C35.96 17.28 36.03 17.29 36.09 17.32C36.15 17.35 36.21 17.39 36.25 17.44C36.3 17.49 36.33 17.55 36.35 17.61C36.37 17.68 36.38 17.75 36.37 17.81ZM17.9 17.28L29.13 17.28L23.52 10.86L17.9 17.28ZM35.35 18.23L11.69 18.23L13.4 31.14C13.42 31.26 13.47 31.36 13.56 31.44C13.65 31.52 13.76 31.56 13.88 31.56L33.16 31.56C33.27 31.56 33.39 31.52 33.47 31.44C33.56 31.36 33.62 31.26 33.63 31.14L35.35 18.23Z" fill="#F5F5F5" fill-opacity="1.000000" fill-rule="nonzero"/>
</svg>
