<svg width="17" height="15" viewBox="0 0 17 15" fill="none" xmlns="http://www.w3.org/2000/svg">
<path d="M8.20655 1.08449C8.42541 0.76094 8.96825 0.760939 9.18711 1.08449L11.5058 4.5123C11.5859 4.63083 11.7203 4.71487 11.876 4.7439L16.3785 5.58345C16.8035 5.66269 16.9713 6.10724 16.6815 6.38645L13.612 9.34451C13.5058 9.44679 13.4545 9.58277 13.4706 9.71924L13.9347 13.6659C13.9785 14.0384 13.5393 14.3132 13.1414 14.1622L8.92562 12.5626C8.77986 12.5073 8.6138 12.5073 8.46803 12.5626L4.2523 14.1622C3.85437 14.3132 3.4152 14.0384 3.45901 13.6659L3.92308 9.71924C3.93913 9.58277 3.88781 9.44679 3.78168 9.34451L0.712134 6.38645C0.422399 6.10724 0.590146 5.66269 1.01514 5.58345L5.5177 4.7439C5.67338 4.71487 5.80772 4.63083 5.88789 4.5123L8.20655 1.08449Z" fill="#313131" fill-opacity="0.77"/>
</svg>
