<svg width="23" height="22" viewBox="0 0 23 22" fill="none" xmlns="http://www.w3.org/2000/svg">
<g clip-path="url(#clip0_1139_1353)">
<path d="M3.67578 9.36301C3.67578 10.2177 3.8495 11.064 4.18702 11.8537C4.52454 12.6433 5.01926 13.3608 5.64291 13.9651C6.26657 14.5695 7.00696 15.0489 7.82181 15.376C8.63666 15.703 9.51 15.8714 10.392 15.8714C11.274 15.8714 12.1473 15.703 12.9622 15.376C13.777 15.0489 14.5174 14.5695 15.1411 13.9651C15.7647 13.3608 16.2594 12.6433 16.597 11.8537C16.9345 11.064 17.1082 10.2177 17.1082 9.36301C17.1082 8.50832 16.9345 7.662 16.597 6.87237C16.2594 6.08274 15.7647 5.36526 15.1411 4.7609C14.5174 4.15654 13.777 3.67714 12.9622 3.35006C12.1473 3.02299 11.274 2.85464 10.392 2.85464C9.51 2.85464 8.63666 3.02299 7.82181 3.35006C7.00696 3.67714 6.26657 4.15654 5.64291 4.7609C5.01926 5.36526 4.52454 6.08274 4.18702 6.87237C3.8495 7.662 3.67578 8.50832 3.67578 9.36301Z" stroke="#F69300" stroke-width="1.5" stroke-linecap="round" stroke-linejoin="round"/>
<path d="M20.9462 19.5905L15.1895 14.0119" stroke="#F69300" stroke-width="1.5" stroke-linecap="round" stroke-linejoin="round"/>
</g>
<defs>
<clipPath id="clip0_1139_1353">
<rect width="22" height="21.3192" fill="white" transform="translate(0.925781 0.189758)"/>
</clipPath>
</defs>
</svg>
