<svg width="15" height="15" viewBox="0 0 15 15" fill="none" xmlns="http://www.w3.org/2000/svg">
<path d="M3.92995 14.2431C3.78146 14.2431 3.63906 14.1841 3.53407 14.0791C3.42907 13.9741 3.37008 13.8317 3.37008 13.6832V10.6949C3.06294 10.8414 2.72253 10.9042 2.38332 10.8769C2.09611 10.8558 1.81707 10.7716 1.56608 10.6304C1.31509 10.4892 1.09831 10.2944 0.931168 10.0599C0.764026 9.82534 0.650634 9.55685 0.59906 9.27352C0.547487 8.99019 0.559 8.69897 0.63278 8.42059C0.706561 8.14221 0.840795 7.88352 1.02593 7.66292C1.21106 7.44232 1.44255 7.26524 1.7039 7.14429C1.96526 7.02333 2.25007 6.96147 2.53805 6.96311C2.82604 6.96475 3.11012 7.02984 3.37008 7.15376V4.16548C3.37008 4.017 3.42907 3.87459 3.53407 3.7696C3.63906 3.6646 3.78146 3.60562 3.92995 3.60562H7.19816C7.05164 3.29847 6.98887 2.95806 7.0162 2.61886C7.03731 2.33164 7.12146 2.05261 7.26267 1.80162C7.40388 1.55062 7.59868 1.33384 7.83321 1.1667C8.06773 0.999561 8.33621 0.886168 8.61955 0.834595C8.90288 0.783021 9.1941 0.794534 9.47248 0.868315C9.75086 0.942096 10.0096 1.07633 10.2301 1.26146C10.4507 1.4466 10.6278 1.67808 10.7488 1.93944C10.8697 2.2008 10.9316 2.4856 10.93 2.77359C10.9283 3.06157 10.8632 3.34565 10.7393 3.60562H14.0075C14.156 3.60562 14.2984 3.6646 14.4034 3.7696C14.5084 3.87459 14.5674 4.017 14.5674 4.16548V7.15376C14.2602 7.00724 13.9198 6.94447 13.5806 6.97181C13.2934 6.99291 13.0144 7.07706 12.7634 7.21827C12.5124 7.35948 12.2956 7.55429 12.1285 7.78881C11.9613 8.02333 11.8479 8.29182 11.7964 8.57515C11.7448 8.85848 11.7563 9.1497 11.8301 9.42808C11.9039 9.70646 12.0381 9.96515 12.2232 10.1858C12.4084 10.4063 12.6398 10.5834 12.9012 10.7044C13.1626 10.8253 13.4474 10.8872 13.7353 10.8856C14.0233 10.8839 14.3074 10.8188 14.5674 10.6949V13.6832C14.5674 13.8317 14.5084 13.9741 14.4034 14.0791C14.2984 14.1841 14.156 14.2431 14.0075 14.2431H3.92995Z" fill="#313131" fill-opacity="0.77"/>
</svg>
