<svg width="18" height="18" viewBox="0 0 18 18" fill="none" xmlns="http://www.w3.org/2000/svg">
<path fill-rule="evenodd" clip-rule="evenodd" d="M8.38985 2.93336C8.64044 2.71562 8.96069 2.59475 9.29266 2.59261C9.62463 2.59047 9.94641 2.70719 10.1998 2.92168L14.6281 6.66745L16.3656 8.03947C16.4373 8.09606 16.4971 8.16621 16.5417 8.24591C16.5862 8.32561 16.6146 8.41331 16.6253 8.50399C16.6359 8.59467 16.6286 8.68657 16.6038 8.77442C16.5789 8.86228 16.537 8.94438 16.4804 9.01603C16.4238 9.08769 16.3536 9.1475 16.2739 9.19204C16.1942 9.23659 16.1066 9.265 16.0159 9.27566C15.9252 9.28631 15.8333 9.279 15.7454 9.25414C15.6576 9.22928 15.5755 9.18736 15.5038 9.13077L14.8925 8.64815L14.928 14.1524C14.9304 14.5211 14.7862 14.8756 14.5272 15.138C14.2682 15.4004 13.9156 15.5491 13.5469 15.5515L10.7666 15.5694L10.7442 12.0941C10.7418 11.7254 10.5931 11.3728 10.3307 11.1138C10.0683 10.8547 9.71376 10.7106 9.34508 10.7129C8.97639 10.7153 8.62375 10.8641 8.36474 11.1264C8.10572 11.3888 7.96154 11.7434 7.96392 12.112L7.98636 15.5874L5.2061 15.6053C4.83741 15.6077 4.48288 15.4635 4.2205 15.2045C3.95812 14.9455 3.80937 14.5928 3.80699 14.2242L3.77146 8.71925L3.16642 9.20972C3.096 9.27064 3.01407 9.31679 2.92548 9.34543C2.83689 9.37407 2.74345 9.38462 2.6507 9.37646C2.55795 9.36829 2.46779 9.34158 2.38556 9.2979C2.30334 9.25422 2.23073 9.19447 2.17204 9.12219C2.11335 9.04991 2.06979 8.96657 2.04392 8.87713C2.01806 8.78769 2.01043 8.69396 2.02149 8.60151C2.03255 8.50907 2.06206 8.41978 2.10829 8.33896C2.15452 8.25814 2.21651 8.18743 2.29059 8.13103L4.01028 6.73669L8.38985 2.93336V2.93336Z" fill="#313131" fill-opacity="0.77"/>
</svg>
