<svg width="158" height="27" viewBox="0 0 158 27" fill="none" xmlns="http://www.w3.org/2000/svg">
<path d="M22.515 6.51644V20.4764H19.715V11.3964L15.975 20.4764H13.855L10.095 11.3964V20.4764H7.29504V6.51644H10.475L14.915 16.8964L19.355 6.51644H22.515ZM35.5833 14.6964C35.5833 15.0964 35.5567 15.4564 35.5033 15.7764H27.4033C27.47 16.5764 27.75 17.2031 28.2433 17.6564C28.7367 18.1098 29.3433 18.3364 30.0633 18.3364C31.1033 18.3364 31.8433 17.8898 32.2833 16.9964H35.3033C34.9833 18.0631 34.37 18.9431 33.4633 19.6364C32.5567 20.3164 31.4433 20.6564 30.1233 20.6564C29.0567 20.6564 28.0967 20.4231 27.2433 19.9564C26.4033 19.4764 25.7433 18.8031 25.2633 17.9364C24.7967 17.0698 24.5633 16.0698 24.5633 14.9364C24.5633 13.7898 24.7967 12.7831 25.2633 11.9164C25.73 11.0498 26.3833 10.3831 27.2233 9.91644C28.0633 9.44977 29.03 9.21644 30.1233 9.21644C31.1767 9.21644 32.1167 9.44311 32.9433 9.89644C33.7833 10.3498 34.43 10.9964 34.8833 11.8364C35.35 12.6631 35.5833 13.6164 35.5833 14.6964ZM32.6833 13.8964C32.67 13.1764 32.41 12.6031 31.9033 12.1764C31.3967 11.7364 30.7767 11.5164 30.0433 11.5164C29.35 11.5164 28.7633 11.7298 28.2833 12.1564C27.8167 12.5698 27.53 13.1498 27.4233 13.8964H32.6833ZM36.9071 14.8964C36.9071 13.7764 37.1271 12.7831 37.5671 11.9164C38.0204 11.0498 38.6271 10.3831 39.3871 9.91644C40.1604 9.44977 41.0204 9.21644 41.9671 9.21644C42.7937 9.21644 43.5137 9.38311 44.1271 9.71644C44.7537 10.0498 45.2537 10.4698 45.6271 10.9764V9.39644H48.4471V20.4764H45.6271V18.8564C45.2671 19.3764 44.7671 19.8098 44.1271 20.1564C43.5004 20.4898 42.7737 20.6564 41.9471 20.6564C41.0137 20.6564 40.1604 20.4164 39.3871 19.9364C38.6271 19.4564 38.0204 18.7831 37.5671 17.9164C37.1271 17.0364 36.9071 16.0298 36.9071 14.8964ZM45.6271 14.9364C45.6271 14.2564 45.4937 13.6764 45.2271 13.1964C44.9604 12.7031 44.6004 12.3298 44.1471 12.0764C43.6937 11.8098 43.2071 11.6764 42.6871 11.6764C42.1671 11.6764 41.6871 11.8031 41.2471 12.0564C40.8071 12.3098 40.4471 12.6831 40.1671 13.1764C39.9004 13.6564 39.7671 14.2298 39.7671 14.8964C39.7671 15.5631 39.9004 16.1498 40.1671 16.6564C40.4471 17.1498 40.8071 17.5298 41.2471 17.7964C41.7004 18.0631 42.1804 18.1964 42.6871 18.1964C43.2071 18.1964 43.6937 18.0698 44.1471 17.8164C44.6004 17.5498 44.9604 17.1764 45.2271 16.6964C45.4937 16.2031 45.6271 15.6164 45.6271 14.9364ZM53.9818 5.67644V20.4764H51.1818V5.67644H53.9818ZM71.9682 6.51644V20.4764H69.1682V11.3964L65.4282 20.4764H63.3082L59.5482 11.3964V20.4764H56.7482V6.51644H59.9282L64.3682 16.8964L68.8082 6.51644H71.9682ZM85.0364 14.6964C85.0364 15.0964 85.0098 15.4564 84.9564 15.7764H76.8564C76.9231 16.5764 77.2031 17.2031 77.6964 17.6564C78.1898 18.1098 78.7964 18.3364 79.5164 18.3364C80.5564 18.3364 81.2964 17.8898 81.7364 16.9964H84.7564C84.4364 18.0631 83.8231 18.9431 82.9164 19.6364C82.0098 20.3164 80.8964 20.6564 79.5764 20.6564C78.5098 20.6564 77.5498 20.4231 76.6964 19.9564C75.8564 19.4764 75.1964 18.8031 74.7164 17.9364C74.2498 17.0698 74.0164 16.0698 74.0164 14.9364C74.0164 13.7898 74.2498 12.7831 74.7164 11.9164C75.1831 11.0498 75.8364 10.3831 76.6764 9.91644C77.5164 9.44977 78.4831 9.21644 79.5764 9.21644C80.6298 9.21644 81.5698 9.44311 82.3964 9.89644C83.2364 10.3498 83.8831 10.9964 84.3364 11.8364C84.8031 12.6631 85.0364 13.6164 85.0364 14.6964ZM82.1364 13.8964C82.1231 13.1764 81.8631 12.6031 81.3564 12.1764C80.8498 11.7364 80.2298 11.5164 79.4964 11.5164C78.8031 11.5164 78.2164 11.7298 77.7364 12.1564C77.2698 12.5698 76.9831 13.1498 76.8764 13.8964H82.1364ZM86.3602 14.8964C86.3602 13.7764 86.5802 12.7831 87.0202 11.9164C87.4735 11.0498 88.0802 10.3831 88.8402 9.91644C89.6135 9.44977 90.4735 9.21644 91.4202 9.21644C92.2469 9.21644 92.9669 9.38311 93.5802 9.71644C94.2069 10.0498 94.7069 10.4698 95.0802 10.9764V9.39644H97.9002V20.4764H95.0802V18.8564C94.7202 19.3764 94.2202 19.8098 93.5802 20.1564C92.9535 20.4898 92.2269 20.6564 91.4002 20.6564C90.4669 20.6564 89.6135 20.4164 88.8402 19.9364C88.0802 19.4564 87.4735 18.7831 87.0202 17.9164C86.5802 17.0364 86.3602 16.0298 86.3602 14.8964ZM95.0802 14.9364C95.0802 14.2564 94.9469 13.6764 94.6802 13.1964C94.4135 12.7031 94.0535 12.3298 93.6002 12.0764C93.1469 11.8098 92.6602 11.6764 92.1402 11.6764C91.6202 11.6764 91.1402 11.8031 90.7002 12.0564C90.2602 12.3098 89.9002 12.6831 89.6202 13.1764C89.3535 13.6564 89.2202 14.2298 89.2202 14.8964C89.2202 15.5631 89.3535 16.1498 89.6202 16.6564C89.9002 17.1498 90.2602 17.5298 90.7002 17.7964C91.1535 18.0631 91.6335 18.1964 92.1402 18.1964C92.6602 18.1964 93.1469 18.0698 93.6002 17.8164C94.0535 17.5498 94.4135 17.1764 94.6802 16.6964C94.9469 16.2031 95.0802 15.6164 95.0802 14.9364ZM99.9149 14.8964C99.9149 13.7764 100.135 12.7831 100.575 11.9164C101.028 11.0498 101.642 10.3831 102.415 9.91644C103.188 9.44977 104.048 9.21644 104.995 9.21644C105.715 9.21644 106.402 9.37644 107.055 9.69644C107.708 10.0031 108.228 10.4164 108.615 10.9364V5.67644H111.455V20.4764H108.615V18.8364C108.268 19.3831 107.782 19.8231 107.155 20.1564C106.528 20.4898 105.802 20.6564 104.975 20.6564C104.042 20.6564 103.188 20.4164 102.415 19.9364C101.642 19.4564 101.028 18.7831 100.575 17.9164C100.135 17.0364 99.9149 16.0298 99.9149 14.8964ZM108.635 14.9364C108.635 14.2564 108.502 13.6764 108.235 13.1964C107.968 12.7031 107.608 12.3298 107.155 12.0764C106.702 11.8098 106.215 11.6764 105.695 11.6764C105.175 11.6764 104.695 11.8031 104.255 12.0564C103.815 12.3098 103.455 12.6831 103.175 13.1764C102.908 13.6564 102.775 14.2298 102.775 14.8964C102.775 15.5631 102.908 16.1498 103.175 16.6564C103.455 17.1498 103.815 17.5298 104.255 17.7964C104.708 18.0631 105.188 18.1964 105.695 18.1964C106.215 18.1964 106.702 18.0698 107.155 17.8164C107.608 17.5498 107.968 17.1764 108.235 16.6964C108.502 16.2031 108.635 15.6164 108.635 14.9364ZM119.11 20.6564C118.043 20.6564 117.083 20.4231 116.23 19.9564C115.376 19.4764 114.703 18.8031 114.21 17.9364C113.73 17.0698 113.49 16.0698 113.49 14.9364C113.49 13.8031 113.736 12.8031 114.23 11.9364C114.736 11.0698 115.423 10.4031 116.29 9.93644C117.156 9.45644 118.123 9.21644 119.19 9.21644C120.256 9.21644 121.223 9.45644 122.09 9.93644C122.956 10.4031 123.636 11.0698 124.13 11.9364C124.636 12.8031 124.89 13.8031 124.89 14.9364C124.89 16.0698 124.63 17.0698 124.11 17.9364C123.603 18.8031 122.91 19.4764 122.03 19.9564C121.163 20.4231 120.19 20.6564 119.11 20.6564ZM119.11 18.2164C119.616 18.2164 120.09 18.0964 120.53 17.8564C120.983 17.6031 121.343 17.2298 121.61 16.7364C121.876 16.2431 122.01 15.6431 122.01 14.9364C122.01 13.8831 121.73 13.0764 121.17 12.5164C120.623 11.9431 119.95 11.6564 119.15 11.6564C118.35 11.6564 117.676 11.9431 117.13 12.5164C116.596 13.0764 116.33 13.8831 116.33 14.9364C116.33 15.9898 116.59 16.8031 117.11 17.3764C117.643 17.9364 118.31 18.2164 119.11 18.2164ZM142.303 9.39644L139.063 20.4764H136.043L134.023 12.7364L132.003 20.4764H128.963L125.703 9.39644H128.543L130.503 17.8364L132.623 9.39644H135.583L137.663 17.8164L139.623 9.39644H142.303Z" fill="url(#paint0_linear_183_2335)"/>
<defs>
<linearGradient id="paint0_linear_183_2335" x1="5.91504" y1="13.4764" x2="142.915" y2="13.4764" gradientUnits="userSpaceOnUse">
<stop stop-color="#FFD20B"/>
<stop offset="1" stop-color="#F69300"/>
</linearGradient>
</defs>
</svg>
