<svg width="25" height="25" viewBox="0 0 25 25" fill="none" xmlns="http://www.w3.org/2000/svg">
<path d="M20.3369 11.7443C19.6064 10.8913 19.2745 10.1521 19.2745 8.89616V8.46913C19.2745 6.83254 18.8978 5.77806 18.0788 4.72359C16.8166 3.08599 14.6918 2.099 12.6116 2.099H12.5232C10.4867 2.099 8.42845 3.04067 7.14438 4.6118C6.28071 5.68742 5.86031 6.78721 5.86031 8.46913V8.89616C5.86031 10.1521 5.55022 10.8913 4.79787 11.7443C4.24429 12.3728 4.06738 13.1805 4.06738 14.0547C4.06738 14.9299 4.35461 15.7588 4.93105 16.4325C5.6834 17.2403 6.74584 17.7559 7.83114 17.8456C9.40243 18.0248 10.9737 18.0923 12.5679 18.0923C14.161 18.0923 15.7323 17.9795 17.3046 17.8456C18.3889 17.7559 19.4514 17.2403 20.2037 16.4325C20.7792 15.7588 21.0674 14.9299 21.0674 14.0547C21.0674 13.1805 20.8905 12.3728 20.3369 11.7443Z" fill="#FFA001"/>
<path opacity="0.4" d="M14.5761 19.3274C14.0762 19.2206 11.03 19.2206 10.5301 19.3274C10.1028 19.4261 9.64062 19.6557 9.64062 20.1592C9.66547 20.6396 9.94673 21.0637 10.3363 21.3326L10.3353 21.3336C10.8392 21.7263 11.4306 21.9761 12.0497 22.0658C12.3797 22.1111 12.7156 22.1091 13.0575 22.0658C13.6757 21.9761 14.2671 21.7263 14.7709 21.3336L14.7699 21.3326C15.1595 21.0637 15.4408 20.6396 15.4656 20.1592C15.4656 19.6557 15.0035 19.4261 14.5761 19.3274Z" fill="#FFA001"/>
</svg>
