<svg width="384.525452" height="349.556396" viewBox="0 0 384.525 349.556" fill="none" xmlns="http://www.w3.org/2000/svg" xmlns:xlink="http://www.w3.org/1999/xlink">
	<desc>
			Created with Pixso.
	</desc>
	<defs>
		<linearGradient x1="192.262695" y1="63.619141" x2="192.262695" y2="290.667725" id="paint_linear_409_2822_0" gradientUnits="userSpaceOnUse">
			<stop stop-color="#FFD20B"/>
			<stop offset="1.000000" stop-color="#F69300"/>
		</linearGradient>
		<linearGradient x1="193.579681" y1="334.623291" x2="193.579681" y2="349.556305" id="paint_linear_409_2823_0" gradientUnits="userSpaceOnUse">
			<stop stop-color="#FFD20B"/>
			<stop offset="1.000000" stop-color="#F69300"/>
		</linearGradient>
		<linearGradient x1="166.712875" y1="50.546875" x2="166.712875" y2="251.653168" id="paint_linear_409_2824_0" gradientUnits="userSpaceOnUse">
			<stop stop-color="#FFD20B"/>
			<stop offset="1.000000" stop-color="#F69300"/>
		</linearGradient>
		<linearGradient x1="198.610382" y1="71.490234" x2="198.610382" y2="202.900726" id="paint_linear_409_2825_0" gradientUnits="userSpaceOnUse">
			<stop stop-color="#FFD20B"/>
			<stop offset="1.000000" stop-color="#F69300"/>
		</linearGradient>
		<linearGradient x1="164.137299" y1="252.034912" x2="164.137299" y2="282.748688" id="paint_linear_409_2826_0" gradientUnits="userSpaceOnUse">
			<stop stop-color="#FFD20B"/>
			<stop offset="1.000000" stop-color="#F69300"/>
		</linearGradient>
		<linearGradient x1="271.080658" y1="242.971436" x2="271.080658" y2="273.685211" id="paint_linear_409_2827_0" gradientUnits="userSpaceOnUse">
			<stop stop-color="#FFD20B"/>
			<stop offset="1.000000" stop-color="#F69300"/>
		</linearGradient>
		<linearGradient x1="38.271030" y1="48.658607" x2="39.335102" y2="61.199028" id="paint_linear_409_2828_0" gradientUnits="userSpaceOnUse">
			<stop stop-color="#FFD20B"/>
			<stop offset="1.000000" stop-color="#F69300"/>
		</linearGradient>
		<linearGradient x1="202.529083" y1="136.120361" x2="202.529083" y2="159.013672" id="paint_linear_409_2829_0" gradientUnits="userSpaceOnUse">
			<stop stop-color="#FFD20B"/>
			<stop offset="1.000000" stop-color="#F69300"/>
		</linearGradient>
		<linearGradient x1="228.564041" y1="116.530518" x2="228.564041" y2="123.834015" id="paint_linear_409_2830_0" gradientUnits="userSpaceOnUse">
			<stop stop-color="#FFD20B"/>
			<stop offset="1.000000" stop-color="#F69300"/>
		</linearGradient>
		<linearGradient x1="170.690445" y1="121.421143" x2="170.690445" y2="128.724640" id="paint_linear_409_2831_0" gradientUnits="userSpaceOnUse">
			<stop stop-color="#FFD20B"/>
			<stop offset="1.000000" stop-color="#F69300"/>
		</linearGradient>
		<linearGradient x1="66.192017" y1="262.860596" x2="66.192017" y2="276.913300" id="paint_linear_409_2832_0" gradientUnits="userSpaceOnUse">
			<stop stop-color="#FFD20B"/>
			<stop offset="1.000000" stop-color="#F69300"/>
		</linearGradient>
		<linearGradient x1="67.822548" y1="269.870361" x2="67.822548" y2="273.130859" id="paint_linear_409_2833_0" gradientUnits="userSpaceOnUse">
			<stop stop-color="#FFD20B"/>
			<stop offset="1.000000" stop-color="#F69300"/>
		</linearGradient>
		<linearGradient x1="290.219971" y1="1.630127" x2="290.219971" y2="15.650225" id="paint_linear_409_2834_0" gradientUnits="userSpaceOnUse">
			<stop stop-color="#FFD20B"/>
			<stop offset="1.000000" stop-color="#F69300"/>
		</linearGradient>
		<linearGradient x1="291.850494" y1="8.639893" x2="291.850494" y2="11.900379" id="paint_linear_409_2835_0" gradientUnits="userSpaceOnUse">
			<stop stop-color="#FFD20B"/>
			<stop offset="1.000000" stop-color="#F69300"/>
		</linearGradient>
		<linearGradient x1="124.228882" y1="43.527588" x2="124.228882" y2="57.547680" id="paint_linear_409_2836_0" gradientUnits="userSpaceOnUse">
			<stop stop-color="#FFD20B"/>
			<stop offset="1.000000" stop-color="#F69300"/>
		</linearGradient>
		<linearGradient x1="125.842262" y1="50.537354" x2="125.842262" y2="53.797840" id="paint_linear_409_2837_0" gradientUnits="userSpaceOnUse">
			<stop stop-color="#FFD20B"/>
			<stop offset="1.000000" stop-color="#F69300"/>
		</linearGradient>
		<linearGradient x1="326.835114" y1="88.424561" x2="326.835114" y2="95.075958" id="paint_linear_409_2838_0" gradientUnits="userSpaceOnUse">
			<stop stop-color="#FFD20B"/>
			<stop offset="1.000000" stop-color="#F69300"/>
		</linearGradient>
		<linearGradient x1="202.545853" y1="58.785889" x2="202.545853" y2="65.176437" id="paint_linear_409_2839_0" gradientUnits="userSpaceOnUse">
			<stop stop-color="#FFD20B"/>
			<stop offset="1.000000" stop-color="#F69300"/>
		</linearGradient>
		<linearGradient x1="223.999344" y1="290.671875" x2="223.999344" y2="297.062439" id="paint_linear_409_2840_0" gradientUnits="userSpaceOnUse">
			<stop stop-color="#FFD20B"/>
			<stop offset="1.000000" stop-color="#F69300"/>
		</linearGradient>
	</defs>
	<path id="Vector" d="M259.04 126.11C231.75 126.11 203.98 125 177.99 117.76C152.49 110.69 129.08 96.96 108.21 81.08C94.55 70.75 82.13 62.5 64.39 63.74C47.04 64.68 30.45 71.16 17.05 82.22C-5.51 101.98 -2.12 138.6 6.91 164.23C20.47 202.93 61.75 229.89 96.84 247.34C137.36 267.58 181.9 279.35 226.54 286.1C265.66 292.07 315.94 296.37 349.85 270.84C380.99 247.34 389.53 193.73 381.9 157.54C380.05 146.85 374.36 137.2 365.89 130.42C344.01 114.41 311.38 125.1 286.79 125.62C277.66 125.82 268.37 126.05 259.04 126.11Z" fill="#F2F2F2" fill-opacity="1.000000" fill-rule="nonzero"/>
	<path id="Vector" d="M381.9 157.54C380.05 146.85 374.36 137.2 365.89 130.42C349.83 118.66 327.97 121.3 307.75 123.74C300.43 124.63 293.33 125.48 286.79 125.62C277.66 125.82 268.37 126.05 259.04 126.11C231.75 126.11 203.98 125 177.99 117.76C152.49 110.69 129.08 96.96 108.21 81.08C94.55 70.75 82.13 62.5 64.39 63.74C47.04 64.68 30.45 71.16 17.05 82.22C-5.51 101.98 -2.12 138.6 6.91 164.23C20.47 202.93 61.75 229.89 96.84 247.34C137.36 267.58 181.9 279.35 226.54 286.1C265.66 292.07 315.94 296.37 349.85 270.84C380.99 247.34 389.53 193.73 381.9 157.54ZM19.16 84.71Q16.89 86.71 14.94 88.98Q4.53 101.13 3.39 121.21Q2.25 141.19 9.99 163.14Q25.85 208.4 98.29 244.42Q152.82 271.66 227.03 282.88Q264.7 288.62 289.94 287.03Q325.95 284.76 347.89 268.24Q368.93 252.35 377.24 218.18Q384 190.41 379.85 164.37Q379.36 161.28 378.71 158.21L378.7 158.16L378.69 158.1Q377.36 150.41 373.65 144.13Q369.96 137.87 363.91 133Q354.03 125.81 338.22 125.01Q328.5 124.52 308.15 126.98Q293.56 128.74 286.86 128.88Q285.49 128.91 282.73 128.97Q267.01 129.32 259.07 129.37Q207.51 129.37 177.12 120.91Q177.12 120.91 177.11 120.91Q142.56 111.32 106.24 83.68Q94.14 74.52 86.48 71.04Q79.65 67.93 72.57 67.15Q68.63 66.71 64.62 66.99Q51.64 67.69 40.17 72.21Q28.95 76.63 19.16 84.71Z" fill="url(#paint_linear_409_2822_0)" fill-opacity="1.000000" fill-rule="evenodd"/>
	<path id="Vector" d="M193.58 349.55C259.68 349.55 313.27 346.21 313.27 342.09C313.27 337.96 259.68 334.62 193.58 334.62C127.47 334.62 73.88 337.96 73.88 342.09C73.88 346.21 127.47 349.55 193.58 349.55Z" fill="#F2F2F2" fill-opacity="1.000000" fill-rule="nonzero"/>
	<path id="Vector" d="M310.15 343.78C297.82 347.09 250.31 349.55 193.58 349.55C136.84 349.55 89.33 347.09 77 343.78C76.87 343.75 76.75 343.72 76.63 343.68C74.83 343.17 73.88 342.63 73.88 342.09C73.88 341.54 74.83 341 76.63 340.49C76.75 340.45 76.87 340.42 77 340.39C89.33 337.08 136.84 334.62 193.58 334.62C250.31 334.62 297.82 337.08 310.15 340.39C310.28 340.42 310.4 340.45 310.52 340.49C312.32 341 313.27 341.54 313.27 342.09C313.27 342.63 312.32 343.17 310.52 343.68C310.4 343.72 310.28 343.75 310.15 343.78ZM301.07 342.09Q297.37 342.57 292.53 343.01Q286.12 343.6 278.01 344.11Q261.5 345.14 240.08 345.71Q217.88 346.29 193.58 346.29Q169.27 346.29 147.07 345.71Q125.65 345.14 109.14 344.11Q101.03 343.6 94.62 343.01Q89.78 342.57 86.08 342.09Q89.78 341.6 94.62 341.16Q101.03 340.57 109.14 340.06Q125.65 339.03 147.07 338.46Q169.27 337.88 193.58 337.88Q217.88 337.88 240.08 338.46Q261.5 339.03 278.01 340.06Q286.12 340.57 292.53 341.16Q297.37 341.6 301.07 342.09Z" fill="url(#paint_linear_409_2823_0)" fill-opacity="1.000000" fill-rule="evenodd"/>
	<path id="Vector" d="M24.68 54.22L67.07 50.63C72.35 50.17 77.64 51.53 82.04 54.5C86.43 57.47 89.68 61.86 91.23 66.93L131.85 202.9L123.9 217.14C121.85 220.81 120.85 224.97 120.98 229.17C121.11 233.37 122.38 237.46 124.66 240.99C126.93 244.52 130.12 247.37 133.88 249.24C137.65 251.1 141.85 251.91 146.04 251.57L308.74 237.75" stroke="url(#paint_linear_409_2824_0)" stroke-opacity="1.000000" stroke-width="3.260487" stroke-linejoin="round" stroke-linecap="round"/>
	<path id="Vector" d="M97.29 87.57L286.4 71.53C288.26 71.37 290.14 71.63 291.89 72.3C293.63 72.96 295.21 74.01 296.5 75.37C297.78 76.72 298.75 78.35 299.32 80.13C299.89 81.91 300.06 83.8 299.8 85.65L286.99 178.15C286.6 180.92 285.29 183.49 283.26 185.43C281.24 187.37 278.63 188.57 275.84 188.84L131.85 202.9L97.29 87.57Z" fill="#FFFFFF" fill-opacity="1.000000" fill-rule="nonzero"/>
	<path id="Vector" d="M286.4 71.53C288.26 71.37 290.14 71.63 291.89 72.3C293.63 72.96 295.21 74.01 296.5 75.37C297.78 76.72 298.75 78.35 299.32 80.13C299.89 81.91 300.06 83.8 299.8 85.65L286.99 178.15C286.6 180.92 285.29 183.49 283.26 185.43C281.24 187.37 278.63 188.57 275.84 188.84L131.85 202.9L97.29 87.57L286.4 71.53Z" stroke="url(#paint_linear_409_2825_0)" stroke-opacity="1.000000" stroke-width="3.260487" stroke-linejoin="round"/>
	<path id="Vector" d="M164.13 282.74C172.61 282.74 179.49 275.87 179.49 267.39C179.49 258.91 172.61 252.03 164.13 252.03C155.65 252.03 148.78 258.91 148.78 267.39C148.78 275.87 155.65 282.74 164.13 282.74Z" fill="#FFFFFF" fill-opacity="1.000000" fill-rule="nonzero"/>
	<path id="Vector" d="M164.13 282.74C155.65 282.74 148.78 275.87 148.78 267.39C148.78 258.91 155.65 252.03 164.13 252.03C172.61 252.03 179.49 258.91 179.49 267.39C179.49 275.87 172.61 282.74 164.13 282.74Z" stroke="url(#paint_linear_409_2826_0)" stroke-opacity="1.000000" stroke-width="3.260487" stroke-linejoin="round"/>
	<path id="Vector" d="M271.08 273.68C279.56 273.68 286.43 266.81 286.43 258.32C286.43 249.84 279.56 242.97 271.08 242.97C262.59 242.97 255.72 249.84 255.72 258.32C255.72 266.81 262.59 273.68 271.08 273.68Z" fill="#FFFFFF" fill-opacity="1.000000" fill-rule="nonzero"/>
	<path id="Vector" d="M271.08 273.68C262.59 273.68 255.72 266.81 255.72 258.32C255.72 249.84 262.59 242.97 271.08 242.97C279.56 242.97 286.43 249.84 286.43 258.32C286.43 266.81 279.56 273.68 271.08 273.68Z" stroke="url(#paint_linear_409_2827_0)" stroke-opacity="1.000000" stroke-width="3.260487" stroke-linejoin="round"/>
	<path id="Vector" d="M58.25 46.96L18.29 50.35C14.82 50.64 12.25 53.69 12.55 57.15C12.84 60.61 15.89 63.18 19.35 62.89L59.31 59.5C62.77 59.21 65.34 56.16 65.05 52.7C64.75 49.23 61.71 46.66 58.25 46.96Z" fill="#D2D2D2" fill-opacity="1.000000" fill-rule="nonzero"/>
	<path id="Vector" d="M18.29 50.35L58.25 46.96C61.71 46.66 64.75 49.23 65.05 52.7C65.34 56.16 62.77 59.21 59.31 59.5L19.35 62.89C15.89 63.18 12.84 60.61 12.55 57.15C12.25 53.69 14.82 50.64 18.29 50.35ZM18.56 53.6L58.52 50.21Q58.9 50.18 59.26 50.23Q59.49 50.27 59.72 50.34Q59.96 50.42 60.19 50.54Q60.48 50.69 60.73 50.91Q60.99 51.13 61.19 51.39Q61.34 51.59 61.46 51.82Q61.57 52.03 61.65 52.25Q61.77 52.6 61.8 52.97Q61.83 53.35 61.77 53.71Q61.74 53.94 61.66 54.17Q61.58 54.41 61.47 54.64Q61.31 54.93 61.1 55.18Q60.88 55.44 60.62 55.64Q60.42 55.79 60.19 55.91Q59.98 56.02 59.76 56.1Q59.41 56.22 59.03 56.25L19.07 59.64Q18.7 59.67 18.33 59.61Q18.1 59.58 17.88 59.5Q17.63 59.42 17.41 59.31Q17.12 59.15 16.86 58.94Q16.61 58.72 16.41 58.46Q16.25 58.26 16.13 58.03Q16.02 57.82 15.95 57.6Q15.83 57.25 15.8 56.88Q15.76 56.5 15.82 56.14Q15.86 55.91 15.93 55.68Q16.01 55.44 16.13 55.21Q16.28 54.92 16.5 54.66Q16.72 54.41 16.98 54.21Q17.18 54.05 17.41 53.93Q17.62 53.82 17.84 53.75Q18.18 53.63 18.56 53.6Z" fill="url(#paint_linear_409_2828_0)" fill-opacity="1.000000" fill-rule="evenodd"/>
	<path id="Vector" d="M176.91 159.01C177.69 153.06 180.48 147.55 184.82 143.41C189.16 139.26 194.79 136.72 200.77 136.21C206.75 135.7 212.72 137.25 217.7 140.6C222.68 143.95 226.36 148.91 228.14 154.64" stroke="url(#paint_linear_409_2829_0)" stroke-opacity="1.000000" stroke-width="3.260487" stroke-linejoin="round" stroke-linecap="round"/>
	<path id="Vector" d="M228.56 123.83C230.58 123.83 232.21 122.19 232.21 120.18C232.21 118.16 230.58 116.53 228.56 116.53C226.54 116.53 224.91 118.16 224.91 120.18C224.91 122.19 226.54 123.83 228.56 123.83Z" fill="#BABABA" fill-opacity="1.000000" fill-rule="nonzero"/>
	<path id="Vector" d="M232.21 120.18C232.21 122.19 230.58 123.83 228.56 123.83C226.54 123.83 224.91 122.19 224.91 120.18C224.91 118.16 226.54 116.53 228.56 116.53C230.58 116.53 232.21 118.16 232.21 120.18ZM228.71 120.54Q228.64 120.57 228.56 120.57Q228.48 120.57 228.41 120.54Q228.34 120.51 228.28 120.45Q228.23 120.4 228.2 120.33Q228.17 120.26 228.17 120.18Q228.17 120.1 228.2 120.03Q228.23 119.96 228.28 119.9Q228.34 119.84 228.41 119.82Q228.48 119.79 228.56 119.79Q228.64 119.79 228.71 119.82Q228.78 119.84 228.84 119.9Q228.89 119.96 228.92 120.03Q228.95 120.1 228.95 120.18Q228.95 120.26 228.92 120.33Q228.89 120.4 228.84 120.45Q228.78 120.51 228.71 120.54Z" fill="url(#paint_linear_409_2830_0)" fill-opacity="1.000000" fill-rule="evenodd"/>
	<path id="Vector" d="M170.69 128.72C172.7 128.72 174.34 127.09 174.34 125.07C174.34 123.05 172.7 121.42 170.69 121.42C168.67 121.42 167.03 123.05 167.03 125.07C167.03 127.09 168.67 128.72 170.69 128.72Z" fill="#BABABA" fill-opacity="1.000000" fill-rule="nonzero"/>
	<path id="Vector" d="M174.34 125.07C174.34 127.09 172.7 128.72 170.69 128.72C168.67 128.72 167.03 127.09 167.03 125.07C167.03 123.05 168.67 121.42 170.69 121.42C172.7 121.42 174.34 123.05 174.34 125.07ZM170.84 125.43Q170.77 125.46 170.69 125.46Q170.6 125.46 170.54 125.43Q170.47 125.4 170.41 125.35Q170.35 125.29 170.32 125.22Q170.29 125.15 170.29 125.07Q170.29 124.99 170.32 124.92Q170.35 124.85 170.41 124.79Q170.47 124.73 170.54 124.71Q170.6 124.68 170.69 124.68Q170.77 124.68 170.84 124.71Q170.91 124.73 170.96 124.79Q171.02 124.85 171.05 124.92Q171.08 124.99 171.08 125.07Q171.08 125.15 171.05 125.22Q171.02 125.29 170.96 125.35Q170.91 125.4 170.84 125.43Z" fill="url(#paint_linear_409_2831_0)" fill-opacity="1.000000" fill-rule="evenodd"/>
	<path id="Vector" d="M66.21 262.88L66.19 262.86C66.19 261.94 66.9 261.23 67.82 261.23C68.73 261.23 69.45 261.94 69.45 262.86L69.43 262.88L66.21 262.88ZM69.43 276.89L69.45 276.91C69.45 277.82 68.73 278.54 67.82 278.54C66.9 278.54 66.19 277.82 66.19 276.91L66.21 276.89L69.43 276.89Z" fill="#FFFFFF" fill-opacity="1.000000" fill-rule="nonzero"/>
	<path id="Vector" d="M67.82 262.86L67.82 276.91" stroke="url(#paint_linear_409_2832_0)" stroke-opacity="1.000000" stroke-width="3.260487" stroke-linejoin="round" stroke-linecap="round"/>
	<path id="Vector" d="M60.83 271.48L60.81 271.5C59.89 271.5 59.18 270.78 59.18 269.87C59.18 268.95 59.89 268.24 60.81 268.24L60.83 268.26L60.83 271.48ZM74.81 268.26L74.83 268.24C75.74 268.24 76.46 268.95 76.46 269.87C76.46 270.78 75.74 271.5 74.83 271.5L74.81 271.48L74.81 268.26Z" fill="#FFFFFF" fill-opacity="1.000000" fill-rule="nonzero"/>
	<path id="Vector" d="M60.81 269.87L74.83 269.87" stroke="url(#paint_linear_409_2833_0)" stroke-opacity="1.000000" stroke-width="3.260487" stroke-linejoin="round" stroke-linecap="round"/>
	<path id="Vector" d="M290.24 1.65L290.22 1.63C290.22 0.71 290.93 0 291.85 0C292.76 0 293.48 0.71 293.48 1.63L293.46 1.65L290.24 1.65ZM293.46 15.63L293.48 15.65C293.48 16.56 292.76 17.28 291.85 17.28C290.93 17.28 290.22 16.56 290.22 15.65L290.24 15.63L293.46 15.63Z" fill="#FFFFFF" fill-opacity="1.000000" fill-rule="nonzero"/>
	<path id="Vector" d="M291.85 1.63L291.85 15.65" stroke="url(#paint_linear_409_2834_0)" stroke-opacity="1.000000" stroke-width="3.260487" stroke-linejoin="round" stroke-linecap="round"/>
	<path id="Vector" d="M284.85 10.25L284.84 10.27C283.92 10.27 283.21 9.55 283.21 8.63C283.21 7.72 283.92 7 284.84 7L284.85 7.02L284.85 10.25ZM298.84 7.02L298.86 7C299.77 7 300.49 7.72 300.49 8.63C300.49 9.55 299.77 10.27 298.86 10.27L298.84 10.25L298.84 7.02Z" fill="#FFFFFF" fill-opacity="1.000000" fill-rule="nonzero"/>
	<path id="Vector" d="M284.84 8.63L298.86 8.63" stroke="url(#paint_linear_409_2835_0)" stroke-opacity="1.000000" stroke-width="3.260487" stroke-linejoin="round" stroke-linecap="round"/>
	<path id="Vector" d="M124.24 43.54L124.22 43.52C124.22 42.61 124.94 41.89 125.85 41.89C126.77 41.89 127.48 42.61 127.48 43.52L127.46 43.54L124.24 43.54ZM127.46 57.52L127.48 57.54C127.48 58.46 126.77 59.17 125.85 59.17C124.94 59.17 124.22 58.46 124.22 57.54L124.24 57.52L127.46 57.52Z" fill="#FFFFFF" fill-opacity="1.000000" fill-rule="nonzero"/>
	<path id="Vector" d="M125.85 43.52L125.85 57.54" stroke="url(#paint_linear_409_2836_0)" stroke-opacity="1.000000" stroke-width="3.260487" stroke-linejoin="round" stroke-linecap="round"/>
	<path id="Vector" d="M118.83 52.14L118.81 52.16C117.9 52.16 117.18 51.45 117.18 50.53C117.18 49.62 117.9 48.9 118.81 48.9L118.83 48.92L118.83 52.14ZM132.84 48.92L132.86 48.9C133.78 48.9 134.49 49.62 134.49 50.53C134.49 51.45 133.78 52.16 132.86 52.16L132.84 52.14L132.84 48.92Z" fill="#FFFFFF" fill-opacity="1.000000" fill-rule="nonzero"/>
	<path id="Vector" d="M118.81 50.53L132.86 50.53" stroke="url(#paint_linear_409_2837_0)" stroke-opacity="1.000000" stroke-width="3.260487" stroke-linejoin="round" stroke-linecap="round"/>
	<path id="Vector" d="M326.83 95.07C328.67 95.07 330.16 93.58 330.16 91.75C330.16 89.91 328.67 88.42 326.83 88.42C324.99 88.42 323.5 89.91 323.5 91.75C323.5 93.58 324.99 95.07 326.83 95.07Z" fill="#FFFFFF" fill-opacity="1.000000" fill-rule="nonzero"/>
	<path id="Vector" d="M326.83 95.07C324.99 95.07 323.5 93.58 323.5 91.75C323.5 89.91 324.99 88.42 326.83 88.42C328.67 88.42 330.16 89.91 330.16 91.75C330.16 93.58 328.67 95.07 326.83 95.07Z" stroke="url(#paint_linear_409_2838_0)" stroke-opacity="1.000000" stroke-width="3.260487" stroke-linejoin="round"/>
	<path id="Vector" d="M202.54 65.17C204.31 65.17 205.74 63.74 205.74 61.98C205.74 60.21 204.31 58.78 202.54 58.78C200.78 58.78 199.35 60.21 199.35 61.98C199.35 63.74 200.78 65.17 202.54 65.17Z" fill="#CFCFCF" fill-opacity="1.000000" fill-rule="nonzero"/>
	<path id="Vector" d="M205.74 61.98C205.74 63.74 204.31 65.17 202.54 65.17C200.78 65.17 199.35 63.74 199.35 61.98C199.35 60.21 200.78 58.78 202.54 58.78C204.31 58.78 205.74 60.21 205.74 61.98ZM202.52 61.92Q202.53 61.91 202.54 61.91Q202.55 61.91 202.57 61.92Q202.58 61.92 202.59 61.93Q202.6 61.94 202.6 61.95Q202.61 61.96 202.61 61.98Q202.61 61.99 202.6 62Q202.6 62.01 202.59 62.02Q202.58 62.03 202.57 62.04Q202.55 62.04 202.54 62.04Q202.53 62.04 202.52 62.04Q202.5 62.03 202.5 62.02Q202.49 62.01 202.48 62Q202.48 61.99 202.48 61.98Q202.48 61.96 202.48 61.95Q202.49 61.94 202.5 61.93Q202.5 61.92 202.52 61.92Z" fill="url(#paint_linear_409_2839_0)" fill-opacity="1.000000" fill-rule="evenodd"/>
	<path id="Vector" d="M223.99 297.06C225.76 297.06 227.19 295.63 227.19 293.86C227.19 292.1 225.76 290.67 223.99 290.67C222.23 290.67 220.8 292.1 220.8 293.86C220.8 295.63 222.23 297.06 223.99 297.06Z" fill="#CFCFCF" fill-opacity="1.000000" fill-rule="nonzero"/>
	<path id="Vector" d="M227.19 293.86C227.19 295.63 225.76 297.06 223.99 297.06C222.23 297.06 220.8 295.63 220.8 293.86C220.8 292.1 222.23 290.67 223.99 290.67C225.76 290.67 227.19 292.1 227.19 293.86ZM223.97 293.8Q223.98 293.8 223.99 293.8Q224.01 293.8 224.02 293.8Q224.03 293.81 224.04 293.82Q224.05 293.83 224.06 293.84Q224.06 293.85 224.06 293.86Q224.06 293.88 224.06 293.89Q224.05 293.9 224.04 293.91Q224.03 293.92 224.02 293.92Q224.01 293.93 223.99 293.93Q223.98 293.93 223.97 293.92Q223.96 293.92 223.95 293.91Q223.94 293.9 223.93 293.89Q223.93 293.88 223.93 293.86Q223.93 293.85 223.93 293.84Q223.94 293.83 223.95 293.82Q223.96 293.81 223.97 293.8Z" fill="url(#paint_linear_409_2840_0)" fill-opacity="1.000000" fill-rule="evenodd"/>
</svg>
