<svg width="187.408081" height="101.369629" viewBox="0 0 187.408 101.37" fill="none" xmlns="http://www.w3.org/2000/svg" xmlns:xlink="http://www.w3.org/1999/xlink">
	<desc>
			Created with Pixso.
	</desc>
	<defs>
		<linearGradient x1="91.867439" y1="5.608398" x2="91.867439" y2="114.608398" id="paint_linear_20_456_0" gradientUnits="userSpaceOnUse">
			<stop stop-color="#FFD20B"/>
			<stop offset="1.000000" stop-color="#F69300"/>
		</linearGradient>
	</defs>
	<path id="Meal Meadow" d="M134.11 45.66Q134.94 46.75 137.23 46.75Q137.36 46.75 137.49 46.75Q139.54 46.67 141.55 45.32Q143.69 43.87 145.13 42.43Q146.42 41.05 147.4 39.88Q148.4 38.7 148.92 38.01Q149.31 37.47 149.87 36.67Q150.25 36.14 150.15 35.73Q150.1 35.53 149.92 35.36Q149.76 35.58 149.29 36.15Q148.85 36.73 148.33 37.32Q147.1 38.77 145.58 40.37Q144.06 41.96 142.53 43.19Q141.01 44.39 139.73 44.64Q139.42 44.71 139.19 44.71L138.75 44.71Q137.55 44.71 136.92 44.11Q136.79 43.99 136.69 43.84Q136.66 43.79 136.63 43.74Q136.08 42.88 136.08 41.67Q136.08 40.14 136.61 38.36Q137.15 36.56 137.86 34.93Q138.58 33.29 139.12 32.31Q140.25 31.25 142.8 28.93Q145.36 26.61 148.55 23.16Q151.74 19.69 154.79 15.44Q155.92 13.92 157.48 11.52Q159.04 9.13 160.21 6.62Q161.39 4.1 161.39 2.35Q161.39 1.74 161.32 1.52Q161.23 1.16 161.06 0.86Q160.92 0.65 160.74 0.46Q160.7 0.41 160.66 0.37Q160.25 -0.01 159.5 -0.01Q159.15 -0.01 158.81 0.05Q157.88 0.19 157.01 0.72Q155.84 1.44 154.66 2.28Q153.49 3.11 152.21 3.65Q150.68 5.69 148.74 9.09Q146.81 12.47 144.78 16.46Q142.78 20.45 140.9 24.22Q139.05 27.97 137.52 30.79Q136.22 32.46 134.85 33.98Q134.22 34.69 133.65 35.37Q133.65 35.36 133.64 35.36Q132.88 36.26 131.62 37.82Q130.37 39.38 128.89 40.94Q127.4 42.5 125.96 43.58Q124.53 44.64 123.38 44.64Q122.86 44.64 122.59 44.38Q122.32 44.11 122.32 43.56Q122.32 42.65 123.15 40.68Q123.99 38.7 125.16 36.38Q126.35 34.06 127.48 32.09Q128.63 30.1 129.17 29.27Q129.54 28.65 130.3 27.71Q131.06 26.76 131.82 26.76Q132.2 26.76 132.37 26.57Q132.51 26.42 132.51 26.15Q132.51 26.04 132.46 25.97Q132.37 25.85 132.12 25.85L123.38 25.85Q122.12 25.85 120.95 26.17Q119.22 26.65 117.68 27.82Q115.39 29.56 113.19 32.39Q111.75 34.23 110.61 36.23Q109.67 37.37 108.21 38.9Q106.36 40.83 104.15 42.5Q101.94 44.17 99.66 44.93Q98.67 45.23 97.84 45.4Q97 45.55 96.39 45.55Q95 45.55 94.34 44.85Q94.28 44.79 94.22 44.71Q94.21 44.7 94.2 44.68Q93.59 43.85 93.59 42.58Q93.59 41.52 93.88 40.22Q94.18 38.92 94.72 37.56Q96.09 37.56 97.61 37.27Q99.14 36.95 100.27 36.64Q102.16 36.04 104.22 35.1Q106.28 34.13 107.67 32.61Q108.05 32.2 108.33 31.73Q109.09 30.46 109.09 28.73Q109.09 27.94 108.79 27.27Q108.61 26.86 108.32 26.5Q108.32 26.5 108.32 26.49Q107.55 25.54 105.6 25.54Q103.31 25.54 100.88 26.91Q100.59 27.07 100.3 27.25Q98.2 28.52 96.39 30.27Q94.35 32.24 93.12 34.06Q92.58 34.95 92 36.05Q91.96 36.04 91.9 36.04Q91.75 36.04 91.53 36.34Q91.22 36.64 89.69 38.66Q88.17 40.68 86.2 42.58Q85.22 43.56 84 44.32Q82.79 45.08 81.79 45.47Q81.12 45.77 80.51 45.77Q80.05 45.77 79.74 45.56Q79.06 45.1 79.06 43.63Q79.06 41.81 79.97 38.9Q80.88 35.97 82.36 32.4Q83.85 28.82 85.59 25.09Q87.34 21.36 89.04 18.02Q90.77 14.68 92.13 12.21Q93.5 9.72 94.19 8.59Q95.56 6.38 97.16 4.78Q98.29 3.65 99.6 3.36Q100.15 3.24 100.72 3.26Q100.85 3.24 100.97 3.19Q101.21 3.09 101.41 2.89Q101.72 2.57 101.72 2.35L101.67 2.32Q101.63 2.28 101.56 2.28Q100.97 2.23 100.4 2.28Q98.36 2.46 96.43 3.91Q93.96 5.77 91.46 8.44L65.06 36.26L65.06 35.8Q64.99 33.91 64.91 31.1Q64.84 28.28 64.77 25.24Q64.69 22.19 64.62 19.54Q64.54 16.87 64.51 15.2L64.47 13.53Q64.38 9.96 65.29 8.33Q65.71 7.58 66.34 7.09Q67.08 6.52 68.11 6.31Q68.25 6.31 68.76 5.9Q69.26 5.47 69.26 5.25Q69.26 5.24 69.25 5.23Q69.23 5.17 69.09 5.17L60.89 5.17Q59.22 5.17 56.9 5.21Q54.57 5.25 52.11 5.51Q49.64 5.77 47.5 6.38Q45.37 6.99 44.03 8.14Q43.46 8.64 43.14 9.26Q42.71 10.07 42.71 11.09Q42.71 12 43.01 12.91Q43.25 13.6 43.98 14.6Q44.7 15.59 45.61 16.46Q46.52 17.33 47.13 17.72Q47.31 17.76 47.48 17.73Q47.66 17.71 47.84 17.61Q48.19 17.41 48.19 17.26Q48.19 17.18 48.04 17.03Q47.93 16.98 47.83 16.92Q46.9 16.38 46.28 15.29Q45.75 14.33 45.64 13.32Q45.61 13.04 45.61 12.77Q45.61 11.93 45.9 11.22Q46.06 10.83 46.3 10.48Q47.35 8.96 49.75 8.22Q52.14 7.46 55.09 7.23Q58.06 6.99 60.74 6.99L64.91 6.99L64.84 7.07Q63.49 7.44 62.33 8.14Q61.14 8.85 60.16 9.89Q58.23 11.93 56.93 14.68Q54.87 19.15 52.85 23.31Q52.28 24.49 51.67 25.65Q50.15 28.56 48.41 31.36Q45.98 35.28 42.49 39.07Q40.36 41.42 37.89 42.95Q35.94 44.15 33.87 44.4Q33.32 44.47 32.76 44.47Q31.21 44.47 29.96 43.86Q29.06 43.41 28.31 42.65Q26.53 40.83 26.53 37.25Q26.53 36.86 26.34 36.72Q26.23 36.64 26.06 36.64Q26.02 36.64 25.99 36.65Q25.69 36.75 25.69 37.71Q25.69 38.77 25.84 39.88Q25.99 40.98 26.36 41.96Q27.33 44.43 29.13 45.76Q29.34 45.91 29.55 46.05Q31.06 46.98 32.68 47.25Q33.35 47.36 34.05 47.36Q36.63 47.36 39.56 45.92Q42.49 44.47 44.38 42.43Q47.13 39.53 49.36 35.54Q50.98 32.66 52.4 29.68Q52.95 28.53 53.46 27.37Q55.34 23.18 56.78 19.47Q58.23 15.74 59.36 13.38Q60.05 12 60.99 10.83Q61.19 10.58 61.41 10.33Q62.63 8.96 63.93 7.98Q63.17 8.96 62.63 10.33Q62.11 11.71 62.11 13.53L62.11 15.48Q62.11 17.41 62.06 20.49Q62.02 23.57 61.94 27.11Q61.87 30.64 61.72 33.83L61.65 35.65Q61.57 40.07 59.59 42.58Q59.57 42.59 59.57 42.6Q59.55 42.68 59.74 42.8Q59.98 42.95 60.2 42.95Q60.4 42.95 60.42 42.89Q60.42 42.88 60.42 42.87Q60.74 42.5 61.65 41.52Q62.56 40.52 63.09 40.29Q64.08 39.92 64.52 39.35Q64.99 38.77 65.06 38.16L86.97 15.05Q84.98 18.32 83.46 21.51Q81.95 24.7 80.95 26.76Q80.04 28.73 78.63 31.59Q77.24 34.45 76.12 37.45Q75.03 40.44 75.03 42.8Q75.03 45.04 76.15 46.1Q76.24 46.19 76.35 46.27Q77.04 46.8 77.82 47.05Q78.55 47.29 79.35 47.29Q80.12 47.29 80.88 47.09Q81.64 46.9 82.32 46.6Q84.53 45.62 86.46 43.73Q88.41 41.81 89.84 39.96Q90.24 39.44 90.57 39.01Q89.71 41.13 89.71 43.02Q89.71 43.98 90.06 44.78Q90.36 45.45 90.91 46.01Q92.14 47.22 95.26 47.22Q96.24 47.22 97.21 47.07Q99.36 46.73 101.4 45.66Q103.12 44.76 104.65 43.61Q105.77 42.78 106.8 41.81Q107.95 40.73 108.9 39.68Q107.87 42.19 107.56 44.54Q107.49 44.71 107.49 45.08Q107.49 45.77 107.78 46.27Q107.85 46.37 107.94 46.45Q108.26 46.75 108.86 46.75Q109.67 46.75 110.44 46.58Q111.56 46.32 112.59 45.69Q114.34 44.64 115.78 43.41Q118.66 40.9 121.33 38.08Q120.8 38.92 120.11 40.26Q119.42 41.59 118.88 42.97Q118.36 44.32 118.36 45.38Q118.36 46.08 118.71 46.4Q118.79 46.48 118.88 46.53Q119.42 46.83 120.18 46.83Q120.52 46.83 120.86 46.8Q122.94 46.63 124.94 45.43Q127.26 44.02 129.22 41.93Q130.98 40.07 132.37 38.32Q132.47 38.24 132.59 38.08Q132.96 37.64 133.87 36.65Q134.8 35.65 135.78 34.59Q135.17 35.97 134.22 38.4Q133.27 40.83 133.27 42.95Q133.27 44.27 133.85 45.26Q133.97 45.47 134.11 45.66ZM146.38 23.61Q142.78 27.3 140.42 29.27Q141.94 26.46 143.95 22.66Q145.97 18.85 148.16 14.9Q150.37 10.95 152.37 7.72Q154.4 4.49 155.99 2.82Q157.37 1.37 158.2 1.37Q158.37 1.37 158.5 1.44Q158.89 1.66 158.89 2.57Q158.89 3.87 158.2 5.67Q157.52 7.46 156.57 9.31Q155.62 11.17 154.75 12.62Q153.88 14.06 153.49 14.68Q150 19.91 146.38 23.61ZM97.56 36Q96.31 36.12 95.33 36.04Q96.09 34.37 97.37 32.24Q98.67 30.1 100.42 28.47Q101.54 27.42 102.86 27.04Q103.59 26.84 104.37 26.84Q104.92 26.84 105.27 27.1Q105.45 27.24 105.58 27.45Q105.97 28.06 105.97 28.97Q105.97 30.57 104.56 32.59Q103.16 34.59 100.05 35.5Q99.14 35.78 98.21 35.92Q97.89 35.97 97.56 36ZM114.52 42.85Q112.89 44.17 111.98 44.17Q111.79 44.17 111.66 44.08Q111.37 43.89 111.37 43.26Q111.37 42.04 112.2 40.07Q113.04 38.08 114.24 35.97Q115.47 33.83 116.73 32.05Q117.99 30.25 118.9 29.42Q119.74 28.58 121.13 27.71Q122.54 26.84 123.77 26.84Q124.53 26.84 125.01 27.15Q125.09 27.2 125.16 27.27Q125.51 27.59 125.51 28.28Q125.51 29.27 124.4 31.14Q123.3 33 121.63 35.24Q120.77 36.4 119.84 37.49Q118.97 38.52 118.05 39.49Q116.16 41.52 114.52 42.85ZM115.54 100.53Q116.08 100.83 116.84 100.83Q117.04 100.83 117.24 100.82Q119.47 100.7 121.63 99.36Q123.98 97.87 125.99 95.78Q127 94.73 127.85 93.75Q126.96 95.93 126.96 98.1Q126.96 99.54 127.66 100.11Q127.78 100.2 127.91 100.27Q128.85 100.75 130.08 100.75Q131.9 100.75 133.59 100.29Q136.86 99.4 139.65 96.8Q139.95 96.87 140.25 96.87L140.86 96.87Q142.55 96.87 144.03 96.32Q145.09 95.92 146.04 95.24Q147.91 93.9 149.27 92.23Q149.33 92.17 149.39 92.08Q150.45 90.73 152.04 88.71Q153.64 86.68 154.94 84.79Q154.25 86.61 153.71 89Q153.19 91.4 152.92 93.68Q152.66 95.96 152.66 97.63Q152.66 99.55 153.42 100.31Q153.82 100.71 154.31 100.9Q154.74 101.07 155.24 101.07Q156.07 101.07 157.06 100.68Q157.91 100.36 158.69 99.93Q158.83 99.85 158.97 99.77Q160.41 98.93 162.42 96.5Q164.44 94.07 166.34 91.32Q166.95 90.34 167.43 89.39Q167.93 88.45 168.47 87.61Q167.78 90.19 167.36 92.94Q166.95 95.67 166.95 97.63Q166.95 99.55 167.82 100.31Q168.16 100.6 168.55 100.78Q169.17 101.07 169.92 101.07Q170.9 101.07 171.96 100.68Q173.04 100.31 174.02 99.77Q176.75 98.17 179.25 95.59Q181.04 93.75 182.57 91.71Q183.2 90.88 183.78 90Q185.81 87 186.87 84.18Q187.4 82.82 187.4 81.6Q187.4 80.29 186.76 79.52Q186.66 79.39 186.53 79.28Q186.32 79.08 186.08 78.91Q185.36 78.4 184.43 78.18Q184.09 78.13 183.79 78.21Q183.68 78.24 183.58 78.29Q183.21 78.48 183.21 78.63Q183.21 78.66 183.22 78.69Q183.26 78.89 183.6 79.02Q183.97 79.09 184.3 79.74Q184.66 80.37 184.66 81.45Q184.66 82.21 184.51 83.08Q184.36 83.95 183.9 85.09Q182.69 88.45 180.93 91.03Q179.18 93.61 176.6 96.28Q175.69 97.19 174.28 98.02Q172.87 98.86 171.74 98.86Q171.15 98.86 170.78 98.58Q170.07 98.06 170.07 96.58Q170.07 94.9 170.51 92.51Q170.98 90.12 171.7 87.65Q172.42 85.18 173.19 83.12Q173.95 81.06 174.63 80.07Q174.86 79.78 174.82 79.52Q174.8 79.34 174.7 79.28Q174.64 79.24 174.56 79.24Q174.39 79.24 174.17 79.46Q173.56 80 172.37 80.32Q171.2 80.61 170.36 80.76Q169.38 82.43 167.97 85.29Q166.56 88.13 165.06 90.56Q164.59 91.32 163.68 92.7Q162.77 94.07 161.58 95.52Q160.41 96.95 159.23 97.95Q158.06 98.93 156.98 98.93Q156.86 98.93 156.74 98.91Q156.36 98.83 156.03 98.49Q155.63 98.02 155.63 96.8Q155.63 95.2 156.11 92.77Q156.61 90.34 157.37 87.8Q158.13 85.25 158.97 83.16Q159.8 81.06 160.49 80.07Q160.71 79.78 160.71 79.52Q160.71 79.35 160.63 79.28Q160.58 79.24 160.49 79.24Q160.41 79.24 160.03 79.46Q159.5 80 158.32 80.32Q157.15 80.61 156.29 80.76Q154.86 83.04 152.84 85.87Q150.88 88.61 149.31 90.78Q148.16 92.2 146.78 93.33Q146.24 93.78 145.65 94.18Q144.41 95.05 143.03 95.45Q141.81 95.81 140.49 95.81Q141.33 94.98 142.01 94.18Q142.7 93.38 143.39 92.47Q144.81 90.41 146.15 87.72Q147.49 85.01 147.49 82.43Q147.49 80.93 146.74 80.26Q146.66 80.18 146.56 80.11Q146.29 79.92 145.99 79.78Q145.29 79.46 144.44 79.46Q143 79.46 140.9 80.35Q138.82 81.22 137.59 81.97Q137.42 82.08 137.24 82.19Q135.55 83.26 134.07 84.68Q132.43 86.24 131.13 87.98Q130.49 88.9 129.85 89.95Q129.33 90.63 128.44 91.64Q127.1 93.16 125.47 94.79Q123.84 96.43 122.31 97.54Q120.79 98.64 119.88 98.64Q119.5 98.64 119.28 98.45Q118.97 98.19 118.97 97.56Q118.97 96.8 119.7 94.98Q120.42 93.16 121.44 90.99Q122.46 88.82 123.37 86.96Q124.3 85.09 124.67 84.18Q125.51 82.43 126.68 79.93Q127.86 77.42 129.2 74.77Q130.54 72.09 131.74 69.77Q132.97 67.45 133.73 66Q135.92 62.22 137.81 59.9Q139.72 57.58 141.86 56.82Q142.47 56.58 143.1 56.5Q143.75 56.43 144.29 56.43Q145.96 56.43 147.09 57.15Q147.63 57.49 147.96 57.97Q148.35 58.51 148.47 59.25Q148.62 59.4 148.71 59.4Q148.78 59.4 148.93 59.29Q149.08 59.17 149.08 59.1L149.23 56.35Q149.27 55.66 148.98 55.17Q148.79 54.87 148.47 54.64Q147.98 54.31 147.44 54.17Q147.06 54.07 146.65 54.07Q144.93 54.07 143.34 54.51Q140.62 55.25 138.24 57.26Q134.49 60.45 131.37 65.78Q130.22 67.67 128.88 70.2Q127.57 72.71 126.23 75.25Q124.89 77.79 123.69 79.85L121.18 79.85Q119.27 79.85 117.67 80.2Q116.08 80.54 114.33 81.82Q112.05 83.56 109.84 86.39Q108.48 88.14 107.37 90.05Q106.75 90.79 105.92 91.82Q104.68 93.38 103.19 94.94Q101.71 96.5 100.26 97.58Q98.83 98.64 97.68 98.64Q97.16 98.64 96.89 98.38Q96.62 98.11 96.62 97.56Q96.62 96.65 97.46 94.68Q98.29 92.7 99.46 90.38Q100.65 88.06 101.78 86.09Q102.93 84.1 103.47 83.27Q103.84 82.65 104.6 81.71Q105.36 80.76 106.12 80.76Q106.51 80.76 106.68 80.57Q106.81 80.42 106.81 80.15Q106.81 80.04 106.76 79.97Q106.67 79.85 106.42 79.85L97.68 79.85Q96.42 79.85 95.25 80.17Q93.52 80.65 91.98 81.82Q89.7 83.56 87.49 86.39Q86.06 88.23 84.91 90.23Q83.98 91.37 82.51 92.9Q80.66 94.83 78.45 96.5Q76.24 98.17 73.96 98.93Q72.97 99.23 72.14 99.4Q71.3 99.55 70.69 99.55Q69.31 99.55 68.64 98.85Q68.58 98.79 68.52 98.71Q68.51 98.7 68.5 98.68Q67.89 97.85 67.89 96.58Q67.89 95.52 68.18 94.22Q68.48 92.92 69.02 91.56Q70.39 91.56 71.92 91.27Q73.44 90.95 74.57 90.64Q76.46 90.04 78.52 89.1Q80.58 88.13 81.98 86.61Q82.35 86.2 82.63 85.73Q83.39 84.46 83.39 82.73Q83.39 81.94 83.09 81.27Q82.92 80.86 82.63 80.5Q82.62 80.5 82.62 80.49Q81.85 79.54 79.9 79.54Q77.61 79.54 75.18 80.91Q74.89 81.07 74.61 81.25Q72.5 82.52 70.69 84.27Q68.65 86.24 67.42 88.06Q66.88 88.95 66.3 90.05Q66.26 90.04 66.2 90.04Q66.06 90.04 65.83 90.34Q65.52 90.64 64 92.66Q62.47 94.68 60.51 96.58Q59.52 97.56 58.3 98.32Q57.09 99.08 56.09 99.47Q55.42 99.77 54.81 99.77Q54.35 99.77 54.04 99.56Q53.36 99.1 53.36 97.63Q53.36 95.81 54.27 92.9Q55.18 89.97 56.66 86.4Q58.15 82.82 59.89 79.09Q61.64 75.36 63.35 72.02Q65.07 68.68 66.43 66.21Q67.8 63.72 68.49 62.59Q69.86 60.38 71.46 58.78Q72.59 57.65 73.91 57.36Q74.45 57.24 75.02 57.26Q75.15 57.24 75.27 57.19Q75.51 57.09 75.71 56.89Q76.02 56.58 76.02 56.35L75.97 56.32Q75.93 56.28 75.86 56.28Q75.27 56.23 74.7 56.28Q72.66 56.46 70.73 57.91Q68.27 59.77 65.76 62.44L39.36 90.26L39.36 89.8Q39.29 87.91 39.22 85.1Q39.14 82.28 39.07 79.24Q38.99 76.19 38.92 73.54Q38.84 70.87 38.81 69.2L38.77 67.53Q38.68 63.96 39.59 62.33Q40.01 61.58 40.64 61.09Q41.38 60.52 42.41 60.31Q42.56 60.31 43.06 59.9Q43.56 59.47 43.56 59.25Q43.56 59.24 43.55 59.23Q43.53 59.17 43.39 59.17L35.19 59.17Q33.52 59.17 31.2 59.21Q28.88 59.25 26.41 59.51Q23.94 59.77 21.81 60.38Q19.67 60.99 18.33 62.14Q17.76 62.64 17.44 63.26Q17.02 64.07 17.02 65.09Q17.02 66 17.31 66.91Q17.55 67.6 18.28 68.6Q19 69.59 19.91 70.46Q20.82 71.33 21.43 71.72Q21.61 71.76 21.78 71.73Q21.97 71.71 22.14 71.61Q22.49 71.41 22.49 71.26Q22.49 71.18 22.34 71.03Q22.24 70.98 22.13 70.92Q21.2 70.38 20.58 69.29Q20.05 68.33 19.94 67.32Q19.91 67.04 19.91 66.77Q19.91 65.93 20.2 65.22Q20.36 64.83 20.6 64.48Q21.66 62.96 24.05 62.22Q26.45 61.46 29.4 61.23Q32.37 60.99 35.04 60.99L39.22 60.99L39.14 61.07Q37.79 61.44 36.63 62.14Q35.45 62.85 34.46 63.89Q32.53 65.93 31.23 68.68Q29.17 73.15 27.15 77.31Q26.58 78.49 25.97 79.65Q24.45 82.57 22.71 85.36Q20.28 89.28 16.79 93.07Q14.66 95.42 12.19 96.95Q10.24 98.15 8.17 98.4Q7.62 98.47 7.07 98.47Q5.52 98.47 4.26 97.86Q3.36 97.41 2.61 96.65Q0.83 94.83 0.83 91.25Q0.83 90.86 0.64 90.72Q0.54 90.64 0.37 90.64Q0.33 90.64 0.29 90.65Q0 90.75 0 91.71Q0 92.77 0.14 93.88Q0.29 94.98 0.66 95.96Q1.63 98.43 3.43 99.76Q3.64 99.91 3.86 100.05Q5.36 100.98 6.98 101.25Q7.65 101.36 8.35 101.36Q10.93 101.36 13.86 99.92Q16.79 98.47 18.69 96.43Q21.43 93.53 23.66 89.54Q25.28 86.66 26.7 83.67Q27.25 82.53 27.76 81.37Q29.64 77.18 31.09 73.47Q32.53 69.74 33.67 67.38Q34.35 66 35.29 64.83Q35.49 64.58 35.71 64.33Q36.93 62.96 38.23 61.98Q37.47 62.96 36.93 64.33Q36.41 65.71 36.41 67.53L36.41 69.48Q36.41 71.41 36.36 74.49Q36.32 77.57 36.25 81.11Q36.17 84.64 36.02 87.83L35.95 89.65Q35.87 94.07 33.89 96.58Q33.88 96.59 33.87 96.6Q33.85 96.68 34.04 96.8Q34.28 96.95 34.5 96.95Q34.7 96.95 34.72 96.89Q34.72 96.88 34.72 96.87Q35.04 96.5 35.95 95.52Q36.86 94.52 37.4 94.29Q38.38 93.92 38.83 93.35Q39.29 92.77 39.36 92.16L61.27 69.05Q59.28 72.32 57.76 75.51Q56.26 78.7 55.25 80.76Q54.34 82.73 52.93 85.59Q51.54 88.45 50.43 91.45Q49.33 94.44 49.33 96.8Q49.33 99.04 50.45 100.1Q50.55 100.19 50.65 100.27Q51.34 100.8 52.12 101.05Q52.85 101.29 53.66 101.29Q54.42 101.29 55.18 101.09Q55.94 100.9 56.63 100.6Q58.84 99.62 60.77 97.73Q62.72 95.81 64.14 93.96Q64.54 93.44 64.88 93.01Q64.01 95.13 64.01 97.02Q64.01 97.98 64.37 98.78Q64.66 99.45 65.22 100.01Q66.44 101.22 69.56 101.22Q70.55 101.22 71.51 101.07Q73.66 100.73 75.7 99.66Q77.42 98.76 78.95 97.61Q80.08 96.78 81.1 95.81Q82.26 94.73 83.2 93.68Q82.17 96.19 81.86 98.54Q81.79 98.71 81.79 99.08Q81.79 99.77 82.09 100.27Q82.15 100.37 82.24 100.45Q82.56 100.75 83.16 100.75Q83.97 100.75 84.74 100.58Q85.86 100.32 86.89 99.69Q88.64 98.64 90.09 97.41Q92.96 94.9 95.64 92.08Q95.1 92.92 94.41 94.26Q93.72 95.59 93.19 96.97Q92.67 98.32 92.67 99.38Q92.67 100.08 93.02 100.4Q93.09 100.48 93.19 100.53Q93.72 100.83 94.49 100.83Q94.82 100.83 95.16 100.8Q97.24 100.63 99.24 99.43Q101.56 98.02 103.53 95.93Q104.62 94.77 105.57 93.66Q104.53 96.18 104.22 98.54Q104.14 98.71 104.14 99.08Q104.14 99.77 104.44 100.27Q104.51 100.37 104.59 100.45Q104.92 100.75 105.52 100.75Q106.32 100.75 107.09 100.58Q108.21 100.32 109.25 99.69Q110.99 98.64 112.44 97.41Q115.32 94.9 117.99 92.08Q117.45 92.92 116.76 94.26Q116.08 95.59 115.54 96.97Q115.02 98.32 115.02 99.38Q115.02 100.08 115.37 100.4Q115.44 100.48 115.54 100.53ZM134.36 98.71Q133.12 99.47 132.04 99.47Q131.55 99.47 131.23 99.24Q130.85 98.97 130.69 98.39Q130.6 98.1 130.56 97.84Q130.52 97.56 130.52 97.26Q130.52 95.28 131.65 92.92Q132.81 90.56 133.81 88.82Q135.55 85.7 138.13 83.04Q138.82 82.36 140.21 81.52Q141.62 80.69 142.62 80.69Q143.01 80.69 143.28 80.87Q143.83 81.25 143.83 82.43Q143.83 84.64 142.75 87.15Q141.7 89.65 140.64 91.47Q139.73 92.99 138.65 94.48Q138.15 95.18 137.6 95.85Q136.99 96.58 136.31 97.26Q135.63 97.95 134.36 98.71ZM71.86 90Q70.62 90.12 69.63 90.04Q70.39 88.37 71.67 86.24Q72.97 84.1 74.72 82.47Q75.84 81.42 77.16 81.04Q77.89 80.84 78.67 80.84Q79.22 80.84 79.57 81.1Q79.75 81.24 79.88 81.45Q80.27 82.06 80.27 82.97Q80.27 84.57 78.86 86.59Q77.47 88.59 74.35 89.5Q73.44 89.78 72.51 89.92Q72.19 89.97 71.86 90ZM88.82 96.85Q87.19 98.17 86.28 98.17Q86.09 98.17 85.96 98.08Q85.67 97.89 85.67 97.26Q85.67 96.04 86.5 94.07Q87.34 92.08 88.55 89.97Q89.77 87.83 91.03 86.05Q92.29 84.25 93.2 83.42Q94.04 82.58 95.43 81.71Q96.84 80.84 98.07 80.84Q98.83 80.84 99.31 81.15Q99.4 81.2 99.47 81.27Q99.81 81.59 99.81 82.28Q99.81 83.27 98.7 85.14Q97.6 87 95.93 89.24Q95.07 90.4 94.14 91.49Q93.27 92.52 92.35 93.49Q90.46 95.52 88.82 96.85ZM111.18 96.85Q109.54 98.17 108.63 98.17Q108.44 98.17 108.31 98.08Q108.02 97.89 108.02 97.26Q108.02 96.04 108.86 94.07Q109.69 92.08 110.9 89.97Q112.12 87.83 113.39 86.05Q114.65 84.25 115.56 83.42Q116.39 82.58 117.78 81.71Q119.2 80.84 120.42 80.84Q121.18 80.84 121.66 81.15Q121.75 81.2 121.82 81.27Q122.17 81.59 122.17 82.28Q122.17 83.27 121.05 85.14Q119.96 87 118.29 89.24Q117.42 90.4 116.49 91.49Q115.63 92.52 114.7 93.49Q112.81 95.52 111.18 96.85Z" fill="url(#paint_linear_20_456_0)" fill-opacity="1.000000" fill-rule="evenodd"/>
</svg>
