<svg width="91.408974" height="50.104675" viewBox="0 0 91.409 50.1047" fill="none" xmlns="http://www.w3.org/2000/svg" xmlns:xlink="http://www.w3.org/1999/xlink">
	<desc>
			Created with Pixso.
	</desc>
	<defs/>
	<path id="Meal Meadow" d="M65.41 22.27Q65.82 22.8 66.93 22.8Q66.99 22.8 67.06 22.8Q68.06 22.76 69.04 22.1Q70.08 21.4 70.79 20.69Q71.41 20.02 71.89 19.45Q72.38 18.87 72.63 18.54Q72.82 18.27 73.1 17.88Q73.28 17.62 73.23 17.43Q73.21 17.33 73.12 17.24Q73.04 17.35 72.82 17.63Q72.6 17.91 72.34 18.2Q71.75 18.91 71 19.69Q70.26 20.47 69.52 21.06Q68.78 21.65 68.15 21.77Q68 21.81 67.89 21.81L67.67 21.81Q67.09 21.81 66.78 21.51Q66.72 21.45 66.67 21.38Q66.65 21.36 66.64 21.33Q66.37 20.91 66.37 20.32Q66.37 19.58 66.63 18.71Q66.89 17.83 67.24 17.03Q67.59 16.24 67.85 15.76Q68.41 15.24 69.65 14.11Q70.9 12.98 72.45 11.29Q74.01 9.6 75.49 7.53Q76.05 6.79 76.81 5.62Q77.57 4.45 78.14 3.23Q78.72 2 78.72 1.14Q78.72 0.85 78.68 0.74Q78.64 0.56 78.55 0.42Q78.49 0.31 78.4 0.22Q78.38 0.2 78.36 0.18Q78.16 9.53e-6 77.79 9.53e-6Q77.62 9.53e-6 77.46 0.02Q77 0.09 76.58 0.35Q76.01 0.7 75.43 1.11Q74.86 1.52 74.24 1.78Q73.49 2.77 72.54 4.43Q71.6 6.08 70.62 8.03Q69.64 9.97 68.72 11.81Q67.82 13.64 67.08 15.01Q66.44 15.83 65.77 16.57Q65.46 16.92 65.19 17.25Q65.18 17.25 65.18 17.24Q64.81 17.69 64.19 18.45Q63.59 19.21 62.86 19.97Q62.14 20.73 61.43 21.25Q60.74 21.77 60.17 21.77Q59.92 21.77 59.79 21.64Q59.66 21.51 59.66 21.24Q59.66 20.8 60.07 19.84Q60.47 18.87 61.04 17.74Q61.62 16.61 62.18 15.65Q62.74 14.68 63 14.27Q63.18 13.97 63.55 13.51Q63.92 13.05 64.29 13.05Q64.48 13.05 64.56 12.96Q64.63 12.88 64.63 12.75Q64.63 12.7 64.6 12.66Q64.56 12.61 64.44 12.61L60.17 12.61Q59.56 12.61 58.99 12.76Q58.15 12.99 57.39 13.57Q56.28 14.42 55.2 15.79Q54.51 16.69 53.95 17.67Q53.49 18.22 52.78 18.97Q51.87 19.91 50.8 20.73Q49.72 21.54 48.6 21.91Q48.12 22.06 47.72 22.14Q47.31 22.21 47.01 22.21Q46.34 22.21 46.01 21.87Q45.98 21.84 45.95 21.81Q45.95 21.8 45.94 21.79Q45.64 21.39 45.64 20.76Q45.64 20.25 45.79 19.61Q45.93 18.98 46.2 18.32Q46.87 18.32 47.61 18.17Q48.35 18.02 48.9 17.87Q49.83 17.58 50.83 17.12Q51.84 16.64 52.52 15.9Q52.7 15.7 52.83 15.48Q53.2 14.85 53.2 14.01Q53.2 13.62 53.06 13.3Q52.97 13.1 52.83 12.92Q52.83 12.92 52.83 12.92Q52.46 12.45 51.5 12.45Q50.39 12.45 49.2 13.12Q49.06 13.2 48.92 13.29Q47.9 13.91 47.01 14.76Q46.02 15.72 45.42 16.61Q45.15 17.05 44.87 17.58Q44.85 17.58 44.82 17.58Q44.75 17.58 44.64 17.72Q44.49 17.87 43.75 18.85Q43 19.84 42.04 20.76Q41.56 21.24 40.97 21.61Q40.38 21.99 39.89 22.18Q39.56 22.32 39.26 22.32Q39.04 22.32 38.89 22.22Q38.56 21.99 38.56 21.28Q38.56 20.39 39 18.97Q39.45 17.54 40.17 15.8Q40.89 14.06 41.75 12.24Q42.6 10.42 43.43 8.79Q44.27 7.16 44.93 5.95Q45.6 4.74 45.94 4.19Q46.61 3.11 47.39 2.33Q47.94 1.78 48.58 1.64Q48.84 1.58 49.12 1.59Q49.19 1.58 49.25 1.55Q49.36 1.5 49.46 1.41Q49.61 1.25 49.61 1.14L49.59 1.13Q49.57 1.11 49.53 1.11Q49.25 1.08 48.97 1.11Q47.97 1.2 47.03 1.91Q45.83 2.81 44.61 4.11L31.73 17.69L31.73 17.46Q31.7 16.54 31.66 15.17Q31.62 13.79 31.59 12.31Q31.55 10.82 31.51 9.53Q31.48 8.22 31.46 7.41L31.44 6.6Q31.4 4.86 31.84 4.06Q32.05 3.69 32.35 3.46Q32.72 3.18 33.22 3.07Q33.29 3.07 33.53 2.87Q33.78 2.67 33.78 2.56Q33.78 2.55 33.78 2.55Q33.76 2.52 33.7 2.52L29.69 2.52Q28.88 2.52 27.75 2.54Q26.62 2.56 25.41 2.68Q24.21 2.81 23.17 3.11Q22.13 3.41 21.47 3.97Q21.19 4.21 21.04 4.51Q20.83 4.91 20.83 5.41Q20.83 5.85 20.98 6.3Q21.09 6.63 21.45 7.12Q21.8 7.6 22.24 8.03Q22.69 8.45 22.99 8.64Q23.07 8.66 23.16 8.65Q23.25 8.63 23.33 8.59Q23.5 8.49 23.5 8.41Q23.5 8.38 23.43 8.31Q23.38 8.28 23.33 8.25Q22.87 7.98 22.57 7.46Q22.31 6.99 22.26 6.49Q22.24 6.36 22.24 6.22Q22.24 5.82 22.38 5.47Q22.46 5.28 22.58 5.11Q23.09 4.37 24.26 4.01Q25.43 3.63 26.87 3.53Q28.32 3.41 29.62 3.41L31.66 3.41L31.62 3.44Q30.96 3.63 30.4 3.97Q29.82 4.31 29.34 4.82Q28.4 5.82 27.77 7.16Q26.76 9.34 25.77 11.37Q25.5 11.94 25.2 12.51Q24.46 13.93 23.61 15.3Q22.42 17.21 20.72 19.05Q19.68 20.2 18.48 20.94Q17.53 21.53 16.52 21.65Q16.25 21.69 15.98 21.69Q15.22 21.69 14.61 21.39Q14.17 21.17 13.81 20.8Q12.94 19.91 12.94 18.17Q12.94 17.98 12.85 17.91Q12.79 17.87 12.71 17.87Q12.69 17.87 12.67 17.87Q12.53 17.92 12.53 18.39Q12.53 18.91 12.6 19.45Q12.67 19.99 12.86 20.47Q13.33 21.67 14.21 22.32Q14.31 22.39 14.41 22.46Q15.15 22.91 15.94 23.04Q16.27 23.1 16.6 23.1Q17.86 23.1 19.29 22.39Q20.72 21.69 21.65 20.69Q22.99 19.28 24.07 17.33Q24.86 15.93 25.56 14.47Q25.82 13.91 26.07 13.35Q26.99 11.3 27.69 9.49Q28.4 7.67 28.95 6.52Q29.29 5.85 29.75 5.28Q29.84 5.16 29.95 5.04Q30.55 4.37 31.18 3.89Q30.81 4.37 30.55 5.04Q30.29 5.71 30.29 6.6L30.29 7.55Q30.29 8.49 30.27 9.99Q30.25 11.49 30.21 13.22Q30.17 14.94 30.1 16.5L30.07 17.39Q30.03 19.54 29.06 20.76Q29.05 20.77 29.05 20.78Q29.04 20.81 29.13 20.87Q29.25 20.94 29.36 20.94Q29.46 20.94 29.47 20.92Q29.47 20.91 29.47 20.91Q29.62 20.73 30.07 20.25Q30.51 19.76 30.77 19.65Q31.25 19.47 31.47 19.19Q31.7 18.91 31.73 18.61L42.42 7.34Q41.45 8.93 40.7 10.49Q39.97 12.05 39.48 13.05Q39.04 14.01 38.35 15.4Q37.67 16.8 37.13 18.27Q36.59 19.72 36.59 20.87Q36.59 21.97 37.14 22.48Q37.19 22.53 37.24 22.57Q37.57 22.82 37.95 22.95Q38.31 23.06 38.7 23.06L38.7 23.06Q39.07 23.06 39.45 22.96Q39.82 22.87 40.15 22.73Q41.23 22.25 42.17 21.33Q43.12 20.39 43.82 19.49Q44.01 19.24 44.18 19.03Q43.75 20.06 43.75 20.98Q43.75 21.45 43.93 21.84Q44.07 22.17 44.34 22.44Q44.94 23.03 46.46 23.03Q46.94 23.03 47.41 22.95Q48.46 22.79 49.46 22.27Q50.29 21.83 51.04 21.27Q51.59 20.86 52.09 20.39Q52.65 19.86 53.11 19.35Q52.61 20.58 52.46 21.72Q52.42 21.81 52.42 21.99Q52.42 22.32 52.57 22.57Q52.6 22.62 52.65 22.66Q52.8 22.8 53.09 22.8Q53.49 22.8 53.86 22.72Q54.41 22.59 54.91 22.28Q55.77 21.77 56.47 21.17Q57.87 19.95 59.18 18.57Q58.92 18.98 58.58 19.63Q58.25 20.28 57.98 20.95Q57.73 21.61 57.73 22.13Q57.73 22.47 57.9 22.63Q57.94 22.67 57.98 22.69Q58.25 22.84 58.62 22.84Q58.78 22.84 58.95 22.82Q59.96 22.74 60.93 22.16Q62.07 21.47 63.03 20.45Q63.88 19.54 64.56 18.69Q64.61 18.65 64.67 18.57Q64.85 18.36 65.29 17.88Q65.74 17.39 66.22 16.87Q65.93 17.54 65.46 18.73Q65 19.91 65 20.94Q65 21.59 65.28 22.07Q65.34 22.17 65.41 22.27ZM71.39 11.51Q69.64 13.31 68.49 14.27Q69.23 12.91 70.21 11.05Q71.19 9.19 72.26 7.27Q73.34 5.34 74.32 3.76Q75.3 2.19 76.08 1.37Q76.75 0.66 77.16 0.66Q77.24 0.66 77.3 0.7Q77.5 0.81 77.5 1.25Q77.5 1.89 77.16 2.77Q76.83 3.63 76.36 4.54Q75.9 5.45 75.48 6.15Q75.05 6.86 74.86 7.16Q73.16 9.71 71.39 11.51ZM47.58 17.56Q46.98 17.61 46.5 17.58Q46.87 16.76 47.49 15.72Q48.12 14.68 48.98 13.88Q49.52 13.37 50.17 13.19Q50.52 13.09 50.9 13.09Q51.17 13.09 51.34 13.22Q51.43 13.28 51.49 13.39Q51.68 13.68 51.68 14.13Q51.68 14.91 50.99 15.89Q50.32 16.87 48.79 17.31Q48.35 17.45 47.9 17.52Q47.74 17.54 47.58 17.56ZM55.86 20.9Q55.06 21.54 54.62 21.54Q54.52 21.54 54.46 21.5Q54.32 21.4 54.32 21.1Q54.32 20.5 54.72 19.54Q55.13 18.57 55.72 17.54Q56.32 16.5 56.93 15.63Q57.55 14.75 57.99 14.34Q58.4 13.94 59.08 13.51Q59.77 13.09 60.36 13.09Q60.74 13.09 60.97 13.24Q61.01 13.26 61.05 13.3Q61.22 13.45 61.22 13.79Q61.22 14.27 60.67 15.19Q60.14 16.09 59.32 17.19Q58.9 17.75 58.45 18.28Q58.03 18.78 57.58 19.26Q56.65 20.25 55.86 20.9ZM56.35 49.69Q56.61 49.84 56.99 49.84Q57.08 49.84 57.18 49.83Q58.27 49.78 59.32 49.12Q60.47 48.4 61.45 47.37Q61.94 46.86 62.36 46.39Q61.92 47.45 61.92 48.51Q61.92 49.21 62.27 49.49Q62.32 49.53 62.38 49.57Q62.85 49.8 63.44 49.8Q64.33 49.8 65.16 49.58Q66.75 49.14 68.11 47.87Q68.26 47.91 68.4 47.91L68.7 47.91Q69.53 47.91 70.25 47.64Q70.76 47.44 71.23 47.11Q72.14 46.46 72.8 45.64Q72.83 45.61 72.86 45.57Q73.38 44.91 74.16 43.93Q74.94 42.94 75.57 42.01Q75.23 42.9 74.97 44.07Q74.72 45.24 74.58 46.35Q74.46 47.47 74.46 48.28Q74.46 49.21 74.83 49.58Q75.02 49.78 75.26 49.87Q75.47 49.95 75.71 49.95Q76.12 49.95 76.6 49.76Q77.02 49.61 77.4 49.4Q77.47 49.36 77.53 49.32Q78.24 48.91 79.22 47.73Q80.2 46.54 81.13 45.2Q81.43 44.72 81.66 44.26Q81.91 43.8 82.17 43.39Q81.83 44.65 81.63 45.99Q81.43 47.32 81.43 48.28Q81.43 49.21 81.85 49.58Q82.02 49.73 82.21 49.81Q82.51 49.95 82.88 49.95Q83.36 49.95 83.87 49.76Q84.4 49.58 84.88 49.32Q86.21 48.54 87.43 47.28Q88.3 46.39 89.05 45.39Q89.35 44.98 89.64 44.56Q90.63 43.09 91.14 41.72Q91.4 41.06 91.4 40.46Q91.4 39.82 91.09 39.44Q91.04 39.38 90.98 39.33Q90.87 39.23 90.76 39.15Q90.41 38.9 89.96 38.79Q89.79 38.77 89.64 38.81Q89.59 38.82 89.54 38.85Q89.36 38.94 89.36 39.01Q89.36 39.03 89.36 39.04Q89.38 39.14 89.55 39.2Q89.73 39.24 89.89 39.55Q90.06 39.86 90.06 40.39Q90.06 40.76 89.99 41.18Q89.92 41.61 89.69 42.16Q89.1 43.8 88.24 45.06Q87.39 46.32 86.13 47.62Q85.69 48.06 85 48.47Q84.32 48.88 83.76 48.88Q83.48 48.88 83.29 48.74Q82.95 48.49 82.95 47.76Q82.95 46.95 83.17 45.78Q83.39 44.61 83.74 43.41Q84.1 42.21 84.47 41.2Q84.84 40.2 85.18 39.72Q85.28 39.57 85.27 39.44Q85.25 39.36 85.21 39.33Q85.18 39.31 85.14 39.31Q85.06 39.31 84.95 39.42Q84.65 39.68 84.07 39.83Q83.5 39.98 83.09 40.05Q82.61 40.87 81.92 42.26Q81.24 43.64 80.5 44.83Q80.28 45.2 79.83 45.87Q79.39 46.54 78.81 47.25Q78.24 47.94 77.66 48.43Q77.09 48.91 76.57 48.91Q76.51 48.91 76.45 48.9Q76.26 48.86 76.1 48.7Q75.9 48.47 75.9 47.87Q75.9 47.09 76.14 45.91Q76.38 44.72 76.76 43.48Q77.13 42.24 77.53 41.22Q77.94 40.2 78.28 39.72Q78.39 39.57 78.39 39.44Q78.39 39.36 78.34 39.33Q78.32 39.31 78.28 39.31Q78.24 39.31 78.05 39.42Q77.8 39.68 77.22 39.83Q76.65 39.98 76.23 40.05Q75.53 41.16 74.55 42.54Q73.59 43.88 72.82 44.94Q72.26 45.63 71.59 46.18Q71.32 46.4 71.04 46.6Q70.43 47.02 69.76 47.22Q69.17 47.39 68.52 47.39Q68.93 46.99 69.26 46.6Q69.6 46.21 69.93 45.76Q70.63 44.76 71.28 43.45Q71.93 42.12 71.93 40.87Q71.93 40.14 71.57 39.8Q71.53 39.77 71.48 39.73Q71.35 39.64 71.21 39.57Q70.86 39.42 70.45 39.42Q69.74 39.42 68.72 39.85Q67.71 40.28 67.11 40.64Q67.02 40.69 66.94 40.75Q66.11 41.27 65.39 41.96Q64.59 42.72 63.96 43.57Q63.64 44.02 63.33 44.53Q63.08 44.86 62.64 45.36Q61.99 46.1 61.2 46.89Q60.4 47.69 59.66 48.23Q58.91 48.77 58.47 48.77Q58.29 48.77 58.18 48.68Q58.03 48.55 58.03 48.24Q58.03 47.87 58.38 46.99Q58.73 46.1 59.23 45.04Q59.73 43.98 60.17 43.07Q60.62 42.16 60.81 41.72Q61.21 40.87 61.78 39.64Q62.36 38.42 63.02 37.13Q63.67 35.82 64.26 34.69Q64.85 33.56 65.22 32.85Q66.29 31.01 67.22 29.87Q68.15 28.74 69.19 28.37Q69.49 28.25 69.8 28.22Q70.11 28.18 70.38 28.18Q71.19 28.18 71.74 28.53Q72 28.7 72.17 28.93Q72.35 29.2 72.41 29.56Q72.49 29.63 72.53 29.63Q72.57 29.63 72.64 29.58Q72.71 29.52 72.71 29.48L72.78 28.14Q72.81 27.81 72.66 27.57Q72.57 27.42 72.41 27.31Q72.17 27.15 71.91 27.08Q71.72 27.03 71.53 27.03Q70.69 27.03 69.91 27.24Q68.58 27.61 67.42 28.59Q65.6 30.15 64.07 32.74Q63.51 33.67 62.86 34.9Q62.22 36.12 61.57 37.36Q60.91 38.6 60.33 39.61L59.1 39.61Q58.17 39.61 57.39 39.78Q56.61 39.94 55.76 40.57Q54.65 41.42 53.57 42.79Q52.91 43.65 52.37 44.58Q52.07 44.94 51.66 45.45Q51.05 46.21 50.33 46.97Q49.6 47.73 48.9 48.25Q48.2 48.77 47.64 48.77Q47.39 48.77 47.26 48.64Q47.12 48.51 47.12 48.24Q47.12 47.8 47.53 46.84Q47.94 45.87 48.51 44.74Q49.09 43.61 49.64 42.65Q50.2 41.68 50.46 41.27Q50.65 40.97 51.02 40.51Q51.39 40.05 51.76 40.05Q51.95 40.05 52.03 39.96Q52.09 39.88 52.09 39.75Q52.09 39.7 52.07 39.66Q52.02 39.61 51.9 39.61L47.64 39.61Q47.03 39.61 46.46 39.76Q45.61 39.99 44.86 40.57Q43.75 41.42 42.67 42.79Q41.97 43.69 41.41 44.67Q40.96 45.22 40.24 45.97Q39.34 46.91 38.26 47.73Q37.18 48.54 36.07 48.91Q35.59 49.06 35.18 49.14Q34.78 49.21 34.48 49.21Q33.8 49.21 33.48 48.87Q33.45 48.84 33.42 48.81Q33.41 48.8 33.41 48.79Q33.11 48.39 33.11 47.76Q33.11 47.25 33.25 46.61Q33.4 45.98 33.66 45.32Q34.33 45.32 35.07 45.17Q35.82 45.02 36.37 44.87Q37.29 44.58 38.3 44.12Q39.3 43.64 39.98 42.9Q40.17 42.7 40.3 42.48Q40.67 41.85 40.67 41.01Q40.67 40.62 40.53 40.3Q40.44 40.1 40.3 39.92Q40.3 39.92 40.29 39.92Q39.92 39.45 38.97 39.45Q37.85 39.45 36.67 40.12Q36.53 40.2 36.39 40.29Q35.36 40.91 34.48 41.76Q33.48 42.72 32.88 43.61Q32.62 44.05 32.34 44.58Q32.32 44.58 32.29 44.58Q32.22 44.58 32.11 44.72Q31.95 44.87 31.21 45.85Q30.47 46.84 29.51 47.76Q29.03 48.24 28.43 48.61Q27.84 48.99 27.35 49.18Q27.03 49.32 26.73 49.32Q26.51 49.32 26.36 49.22Q26.02 48.99 26.02 48.28Q26.02 47.39 26.47 45.97Q26.91 44.54 27.64 42.8Q28.36 41.06 29.21 39.24Q30.06 37.42 30.89 35.79Q31.74 34.16 32.4 32.95Q33.07 31.74 33.4 31.19Q34.07 30.11 34.85 29.33Q35.4 28.78 36.04 28.64Q36.31 28.58 36.59 28.59Q36.65 28.58 36.71 28.55Q36.83 28.5 36.92 28.41Q37.08 28.25 37.08 28.14L37.05 28.13Q37.03 28.11 37 28.11Q36.71 28.08 36.43 28.11Q35.44 28.2 34.5 28.91Q33.29 29.81 32.07 31.11L19.2 44.69L19.2 44.46Q19.16 43.54 19.13 42.17Q19.09 40.79 19.05 39.31Q19.02 37.82 18.98 36.53Q18.94 35.22 18.93 34.41L18.91 33.6Q18.86 31.86 19.31 31.06Q19.51 30.7 19.82 30.46Q20.18 30.18 20.68 30.07Q20.75 30.07 21 29.87Q21.24 29.67 21.24 29.56Q21.24 29.55 21.24 29.55Q21.23 29.52 21.16 29.52L17.16 29.52Q16.35 29.52 15.21 29.54Q14.08 29.56 12.88 29.68Q11.67 29.81 10.63 30.11Q9.59 30.41 8.94 30.97Q8.66 31.21 8.5 31.51Q8.3 31.91 8.3 32.41Q8.3 32.85 8.44 33.3Q8.56 33.63 8.91 34.12Q9.27 34.6 9.71 35.03Q10.15 35.45 10.45 35.64Q10.54 35.66 10.62 35.65Q10.71 35.63 10.8 35.59Q10.97 35.49 10.97 35.41Q10.97 35.38 10.9 35.31Q10.84 35.28 10.79 35.25Q10.34 34.98 10.04 34.46Q9.78 33.99 9.72 33.49Q9.71 33.36 9.71 33.22Q9.71 32.82 9.85 32.47Q9.93 32.28 10.04 32.11Q10.56 31.37 11.73 31.01Q12.9 30.63 14.34 30.53Q15.78 30.41 17.09 30.41L19.13 30.41L19.09 30.44Q18.43 30.63 17.86 30.97Q17.29 31.31 16.81 31.82Q15.87 32.82 15.23 34.16Q14.23 36.34 13.24 38.37Q12.96 38.94 12.67 39.51Q11.92 40.93 11.08 42.3Q9.89 44.21 8.19 46.05Q7.15 47.2 5.94 47.94Q4.99 48.53 3.98 48.65Q3.72 48.69 3.44 48.69Q2.69 48.69 2.08 48.39Q1.64 48.17 1.27 47.8Q0.4 46.91 0.4 45.17Q0.4 44.98 0.31 44.91Q0.26 44.87 0.18 44.87Q0.16 44.87 0.14 44.87Q-1.91e-6 44.92 -1.91e-6 45.39Q-1.91e-6 45.91 0.07 46.45Q0.14 46.99 0.32 47.47Q0.79 48.67 1.67 49.32Q1.77 49.39 1.88 49.46Q2.61 49.91 3.4 50.04Q3.73 50.1 4.07 50.1Q5.33 50.1 6.76 49.39Q8.19 48.69 9.11 47.69Q10.45 46.28 11.54 44.33Q12.33 42.93 13.02 41.47Q13.29 40.91 13.54 40.35Q14.45 38.3 15.16 36.49Q15.87 34.67 16.42 33.52Q16.75 32.85 17.21 32.28Q17.31 32.16 17.41 32.04Q18.01 31.37 18.65 30.89Q18.27 31.37 18.01 32.04Q17.76 32.71 17.76 33.6L17.76 34.55Q17.76 35.49 17.73 36.99Q17.71 38.49 17.68 40.22Q17.64 41.94 17.57 43.5L17.53 44.39Q17.5 46.54 16.53 47.76Q16.52 47.77 16.52 47.78Q16.51 47.81 16.6 47.87Q16.72 47.94 16.83 47.94Q16.92 47.94 16.93 47.92Q16.93 47.91 16.93 47.91Q17.09 47.73 17.53 47.25Q17.98 46.76 18.24 46.65Q18.72 46.47 18.94 46.19Q19.16 45.91 19.2 45.61L29.88 34.34Q28.91 35.93 28.17 37.49Q27.44 39.05 26.95 40.05Q26.5 41.01 25.82 42.4Q25.14 43.8 24.59 45.27Q24.06 46.72 24.06 47.87Q24.06 48.97 24.6 49.48Q24.65 49.53 24.7 49.57Q25.04 49.82 25.42 49.95Q25.77 50.06 26.17 50.06Q26.54 50.06 26.91 49.96Q27.28 49.87 27.62 49.73Q28.69 49.25 29.64 48.33Q30.59 47.39 31.28 46.49Q31.48 46.24 31.64 46.03Q31.22 47.06 31.22 47.98Q31.22 48.45 31.39 48.84Q31.54 49.17 31.81 49.44Q32.4 50.03 33.92 50.03Q34.41 50.03 34.88 49.95Q35.93 49.79 36.92 49.27Q37.76 48.83 38.51 48.27Q39.06 47.86 39.56 47.39Q40.12 46.86 40.58 46.35Q40.08 47.58 39.93 48.72Q39.89 48.81 39.89 48.99Q39.89 49.32 40.04 49.57Q40.07 49.62 40.11 49.66Q40.27 49.8 40.56 49.8Q40.95 49.8 41.33 49.72Q41.88 49.59 42.38 49.28Q43.23 48.77 43.94 48.17Q45.34 46.95 46.64 45.57Q46.38 45.98 46.05 46.63Q45.71 47.28 45.45 47.95Q45.2 48.61 45.2 49.13Q45.2 49.47 45.37 49.63Q45.4 49.67 45.45 49.69Q45.71 49.84 46.08 49.84Q46.25 49.84 46.41 49.82Q47.43 49.74 48.4 49.16Q49.53 48.47 50.49 47.45Q51.02 46.89 51.49 46.34Q50.98 47.57 50.83 48.72Q50.79 48.81 50.79 48.99Q50.79 49.32 50.94 49.57Q50.97 49.62 51.01 49.66Q51.17 49.8 51.46 49.8Q51.86 49.8 52.23 49.72Q52.78 49.59 53.28 49.28Q54.13 48.77 54.84 48.17Q56.24 46.95 57.55 45.57Q57.28 45.98 56.95 46.63Q56.61 47.28 56.35 47.95Q56.1 48.61 56.1 49.13Q56.1 49.47 56.27 49.63Q56.31 49.67 56.35 49.69ZM65.53 48.81Q64.93 49.18 64.4 49.18Q64.16 49.18 64 49.06Q63.82 48.93 63.74 48.65Q63.7 48.51 63.68 48.38Q63.66 48.24 63.66 48.1Q63.66 47.13 64.21 45.98Q64.77 44.83 65.26 43.98Q66.11 42.46 67.37 41.16Q67.71 40.83 68.39 40.42Q69.07 40.01 69.56 40.01Q69.75 40.01 69.88 40.1Q70.15 40.29 70.15 40.87Q70.15 41.94 69.63 43.16Q69.11 44.39 68.59 45.27Q68.15 46.02 67.63 46.74Q67.38 47.09 67.11 47.41Q66.81 47.77 66.48 48.1Q66.15 48.43 65.53 48.81ZM35.05 44.56Q34.44 44.61 33.96 44.58Q34.33 43.76 34.96 42.72Q35.59 41.68 36.44 40.88Q36.99 40.37 37.63 40.19Q37.99 40.09 38.37 40.09Q38.64 40.09 38.81 40.22Q38.9 40.28 38.96 40.39Q39.15 40.68 39.15 41.13Q39.15 41.91 38.46 42.89Q37.78 43.87 36.26 44.31Q35.82 44.45 35.37 44.52Q35.21 44.54 35.05 44.56ZM43.32 47.9Q42.52 48.54 42.08 48.54Q41.99 48.54 41.92 48.5Q41.78 48.4 41.78 48.1Q41.78 47.5 42.19 46.54Q42.6 45.57 43.19 44.54Q43.78 43.5 44.4 42.63Q45.01 41.75 45.46 41.34Q45.87 40.94 46.54 40.51Q47.23 40.09 47.83 40.09Q48.2 40.09 48.44 40.24Q48.48 40.26 48.51 40.3Q48.68 40.45 48.68 40.79Q48.68 41.27 48.14 42.19Q47.6 43.09 46.79 44.19Q46.37 44.75 45.91 45.28Q45.49 45.78 45.04 46.26Q44.12 47.25 43.32 47.9ZM54.22 47.9Q53.43 48.54 52.98 48.54Q52.89 48.54 52.83 48.5Q52.69 48.4 52.69 48.1Q52.69 47.5 53.09 46.54Q53.5 45.57 54.09 44.54Q54.69 43.5 55.3 42.63Q55.92 41.75 56.36 41.34Q56.77 40.94 57.45 40.51Q58.14 40.09 58.73 40.09Q59.1 40.09 59.34 40.24Q59.38 40.26 59.41 40.3Q59.58 40.45 59.58 40.79Q59.58 41.27 59.04 42.19Q58.51 43.09 57.69 44.19Q57.27 44.75 56.82 45.28Q56.39 45.78 55.94 46.26Q55.02 47.25 54.22 47.9Z" fill="#FFFFFF" fill-opacity="1.000000" fill-rule="evenodd"/>
</svg>
